<?xml version="1.0" encoding="utf-8"?>
<!-- Generator: Adobe Illustrator 24.3.0, SVG Export Plug-In . SVG Version: 6.00 Build 0)  -->
<svg version="1.1" id="katman_1" xmlns="http://www.w3.org/2000/svg" xmlns:xlink="http://www.w3.org/1999/xlink" x="0px" y="0px"
	 viewBox="0 0 1366 768" style="enable-background:new 0 0 1366 768;" xml:space="preserve">
<style type="text/css">
	.st0{fill:#FEFEFE;}
	.st1{fill:#440F01;}
	.st2{fill:#B19C96;}
	.st3{fill:#D7CCC9;}
	.st4{fill:#EFEAE9;}
	.st5{fill:#EDE8E7;}
	.st6{fill:#EEE9E8;}
	.st7{fill:#EDE9E8;}
	.st8{fill:#EFEBE9;}
	.st9{fill:#EDE7E6;}
	.st10{fill:#EFEBEA;}
	.st11{fill:#F0EBEB;}
</style>
<g>
	<path class="st0" d="M-165,1046.3c0-5,0-9.9,0-14.9c0-0.6,0.1-0.8,0.7-0.7c0.1,0,0.2,0,0.4,0c279.3,0,558.5,0,837.8,0
		c0.9,0,1.1,0.2,1.1,1.1c0,49.2,0,98.5,0,147.7c-0.1,0-0.3,0-0.4,0c-3.4-1.4-6.9-2.2-10.4-3.1c-3.6-1-7.3-2-11-2.5
		c-0.1-0.4-0.3-0.5-0.5,0c-2.3-0.4-4.6-1-6.9-1.2c-3.6-0.3-7.1-1.3-10.7-1.3c-0.2,0-0.5-0.1-0.6-0.3c-0.4-0.4-0.9-0.4-1.3-0.4
		c-1.5,0.2-3,0-4.5-0.3c0-0.1-0.1-0.3-0.3-0.3c-0.2,0-0.2,0.2-0.3,0.3c-0.6,0-1.3,0-1.9,0.1c-0.1-0.1-0.1-0.3-0.2-0.3
		c-0.2-0.1-0.2,0.1-0.3,0.3c-4-0.6-8-0.5-12-0.6c-3.6-0.1-7.2-0.4-10.7-0.1c-0.1-0.4-0.3-0.5-0.5-0.1c-1.7,0-3.3,0.3-5,0
		c-0.8-0.1-1.6-0.1-2.4,0.1c-2.5,0.6-5.1,0.1-7.6,0.5c-1.2,0.2-2.4-0.1-3.5,0.4c-0.2-0.3-0.3-0.3-0.5,0c-0.8,0.2-1.6,0.2-2.4,0.2
		c-0.1-0.1-0.1-0.3-0.2-0.3c-0.2-0.1-0.2,0.1-0.3,0.3c-1.5,0.1-3,0.2-4.5,0.4c-0.3-0.4-0.6-0.4-0.7,0.1c-3.3,0.4-6.5,0.8-9.8,1.3
		c-0.1-0.1-0.1-0.3-0.2-0.3c-0.2,0-0.3,0.2-0.3,0.4c-0.4,0.1-0.8,0.3-1.1,0.3c-2.7,0.1-5.4,0.8-8.1,1.1c-3.9,0.5-7.8,1.6-11.7,2.2
		c-4.9,0.9-9.7,2.1-14.6,2.9c-2.8,0.5-5.4,1.5-8.2,2.2c-0.3-0.4-0.4-0.3-0.5,0.1c-2,0.5-3.9,1-5.9,1.6c-1.5,0.4-2.9,1-4.4,1.2
		c-1,0.2-1.7,0.8-2.7,0.8c-0.3-0.4-0.4-0.1-0.5,0.2c-0.5,0.2-0.9,0.4-1.4,0.6c-1.6,0.4-3.3,0.5-4.7,1.2c-1.8,0.8-3.8,1.1-5.6,1.9
		c-1.8,0.8-3.8,0.9-5.6,1.7c-0.7,0.3-1.5,0.6-2.2,0.7c-2,0.2-3.8,1.2-5.6,1.9c-2.7,1.1-5.4,2-8,3.2c-2.4,1-4.9,1.5-7.2,2.8
		c-0.2,0.1-0.5,0.1-0.8,0.2c-1,0.3-2.2,0.4-3.1,0.9c-1.1,0.5-2.2,0.9-3.3,1.2c-1.7,0.5-3.5,1.1-5.2,1.7c-1.9,0.8-4,1.1-5.8,2.2
		c-0.3-0.4-0.6-0.3-0.7,0.2c-2.6,0.9-5.3,1.6-7.9,2.8c-0.3-0.5-0.6-0.4-0.7,0.1c-0.4,0.2-0.8,0.4-1.2,0.5c-0.2-0.3-0.3-0.3-0.5,0
		c-0.8,0-1.3,0.8-2.1,0.7c-0.3-0.4-0.4-0.2-0.5,0.2c-0.5,0.3-1,0.6-1.6,0.6c-0.2-0.5-0.4-0.3-0.5,0.1c-2.6,0.9-5.3,1.8-7.9,2.7
		c-0.3-0.4-0.4-0.2-0.5,0.1c-1.8,0.6-3.5,1.2-5.3,1.8c-0.2-0.3-0.3-0.2-0.5,0c-1.3,0.4-2.7,0.8-4,1.3c-0.3-0.5-0.4-0.3-0.5,0.1
		c-0.5,0.2-1.1,0.5-1.7,0.6c-2.2,0.4-4.3,1.2-6.5,1.8c-2.8,0.8-5.5,1.9-8.4,2.6c-2.2,0.5-4.4,1.2-6.5,2c0-0.2-0.1-0.3-0.3-0.3
		c-0.2,0-0.2,0.2-0.2,0.3c-1.2,0.5-2.6,0.5-3.8,0.9c-1.7,0.6-3.4,1.2-5.3,1.5c-0.8,0.1-1.8,0.1-2.5,0.6c-1.1,0.8-2.4,0.9-3.6,1.1
		c-1.4,0.3-2.8,0.4-4.1,1c-0.8,0.4-1.7,0.7-2.5,0.8c-1.8,0.2-3.4,0.8-5.1,1.2c-0.2-0.3-0.4-0.2-0.5,0c-2,0.5-3.9,1-5.9,1.5
		c-3.4,0.9-6.8,1.8-10.1,2.7c-0.2-0.5-0.4-0.4-0.5,0c-1.7,0.4-3.5,0.7-5.2,1.1c-0.7,0.2-1.4,0.1-2,0.4c-1.6,0.5-3.1,1-4.7,1.2
		c-1.2,0.2-2.4,0.4-3.5,0.6c-1.5,0.3-2.9,0.7-4.4,0.9c-0.3-0.5-0.4-0.3-0.5,0.1c-1.4,0.5-2.9,0.5-4.3,0.8c-0.3-0.4-0.4-0.2-0.5,0.1
		c-1.6,0.4-3.1,0.7-4.7,1c-1.8,0.3-3.7,0.6-5.5,0.9c-1.8,0.3-3.6,0.9-5.4,1.1c-1.8,0.2-3.6,0.7-5.4,0.8c-1.9,0.1-3.8,0.7-5.7,1.1
		c-1.3,0.3-2.8,0-4,0.7c-0.4-0.4-0.7-0.4-1,0.1c-0.2,0-0.4,0-0.6,0c-0.3-0.5-0.5-0.6-0.8,0c-0.2,0.1-0.3,0.2-0.5,0.3
		c-0.9-0.6-1.7-0.4-2.4,0.2c-0.8,0.1-1.6,0-2.4,0.4c-0.3-0.5-0.5-0.4-0.7,0.1c-0.2,0-0.4,0-0.7,0c0-0.2-0.1-0.3-0.2-0.3
		c-0.2,0-0.2,0.2-0.3,0.3c-0.7,0.4-1.6,0.3-2.4,0.5c0-0.2-0.1-0.4-0.3-0.4c-0.3,0-0.4,0.2-0.4,0.4c-0.4,0.1-0.7,0.4-1.1,0.2
		c-0.1-0.2-0.3-0.3-0.6-0.2c-0.8,0.1-1.6,0.3-2.4,0.6c-0.4,0.1-0.8,0.1-1.2,0.2c-0.2-0.5-0.4-0.4-0.5,0c-0.7,0.4-1.4,0.2-2.1,0.3
		c-0.5-0.8-0.7-0.2-1,0.2c-0.2,0.1-0.5,0.1-0.7,0.2c-0.3-0.5-0.5-0.4-0.8,0c-0.2,0-0.4,0-0.6,0c-0.2-0.4-0.4-0.4-0.6,0
		c-0.3,0.2-0.5,0.3-0.9,0.2c-0.2-0.4-0.4-0.4-0.6,0c-0.2,0-0.4,0.1-0.7,0.1c-0.1-0.5-0.3-0.5-0.5-0.1c-0.3,0.1-0.6,0.2-0.9,0.3
		c-0.3-0.5-0.5-0.6-0.8,0c-0.3,0.1-0.6,0.1-0.9,0.2c-0.6-0.6-1.2-0.6-1.8,0c-0.1,0-0.3,0.1-0.4,0.1c-0.4-0.3-0.7-0.3-1,0.1
		c-0.3,0-0.6,0.1-0.9,0.1l0,0c0-0.2,0-0.3-0.2-0.3c-0.2,0-0.3,0.2-0.3,0.4l0,0c-0.2,0-0.5-0.1-0.7-0.1c-0.2-0.4-0.4-0.4-0.6,0
		c-0.3,0.2-0.5,0.3-0.9,0.2c-0.2-0.4-0.3-0.5-0.6,0c-0.2,0-0.4,0-0.7,0c-0.1-0.5-0.3-0.5-0.5,0c-0.2,0-0.4,0-0.7,0
		c0-0.2-0.1-0.3-0.3-0.3c-0.2,0-0.2,0.2-0.3,0.3c-0.2,0.1-0.5,0.2-0.7,0.3c-0.2-0.2-0.3-0.2-0.5,0c-0.5-0.1-0.9,0.4-1.4,0.1
		c-0.2-0.3-0.3-0.3-0.5,0c-0.6-0.1-1.3,0-1.9,0.1c-0.2-0.5-0.4-0.5-0.5,0c-0.2,0-0.5,0.1-0.7,0.1c-0.3-0.5-0.5-0.3-0.8,0
		c-0.1,0-0.3,0-0.4,0.1c-0.3-0.6-0.7-0.6-1.1,0c-0.2,0-0.4,0-0.6,0c-0.2-0.4-0.4-0.4-0.6,0c-0.7,0.1-1.4,0.2-2.1,0.3
		c-0.5-0.7-0.8-0.1-1.2,0.1c-0.2,0-0.5,0-0.7,0c-0.2-0.2-0.3-0.2-0.5,0c-0.3,0-0.6,0-0.9,0c-0.3-0.6-0.7-0.6-1.1,0
		c-0.1,0-0.3,0-0.4,0c-0.7-0.4-1.4-0.3-2,0.2c-0.2,0-0.4,0-0.6,0c-0.2-0.4-0.4-0.5-0.6,0c-0.3,0.1-0.6,0.3-0.9,0
		c-0.2-0.4-0.4-0.4-0.6,0c-0.1,0-0.3,0-0.4,0c-0.3-0.5-0.5-0.5-0.8,0c-0.2,0-0.4,0-0.6,0c-0.2-0.4-0.4-0.4-0.6,0
		c-1.8,0.1-3.6-0.4-5.4,0c-0.1-0.3-0.3-0.5-0.5-0.1c-0.4,0-0.8,0-1.2,0c-0.2-0.2-0.3-0.2-0.5,0c-0.8,0-1.6,0-2.4,0
		c-0.5-0.9-1-0.1-1.5,0c-0.3,0-0.6,0-0.9,0c-0.2-0.4-0.4-0.4-0.6,0c-0.2,0-0.4,0-0.6,0.1c-0.1-0.4-0.3-0.5-0.6-0.1
		c-0.2,0-0.4,0-0.6,0c-0.2-0.4-0.4-0.4-0.6,0c-0.2,0-0.4,0-0.6,0c-0.3-0.5-0.6-0.5-0.8,0c-0.6,0.1-1.3-0.5-1.9,0.1
		c-0.1,0-0.3,0-0.4,0.1c-0.3-0.1-0.6-0.2-1-0.3c-0.2-0.3-0.5-0.4-0.8-0.1c-0.7,0-1.4,0-2.1,0c-0.2-0.6-0.6-0.5-1-0.2
		c-0.4,0-0.8-0.1-1.2-0.1c-0.2-0.4-0.4-0.4-0.6,0c-0.2,0-0.4,0-0.6,0c-0.3-0.6-0.8-0.5-1.2-0.2c-0.4,0-0.8,0-1.2,0.1
		c-0.3-0.5-0.6,0-1,0c-0.1,0-0.1,0-0.2-0.1c-0.2-0.4-0.4-0.5-0.8-0.2c-0.4,0-0.8,0-1.2-0.1c-0.2-0.4-0.4-0.4-0.6,0
		c-0.2,0-0.4,0-0.6,0c-0.2-0.4-0.4-0.4-0.6,0c-0.1,0-0.3,0-0.4,0c-0.2-0.4-0.4-0.5-0.8-0.2c-0.2,0-0.3-0.1-0.5-0.1
		c-0.3-0.5-0.6-0.4-1-0.1c-0.8,0.1-1.6-0.2-2.4,0.1l0,0c-0.1-0.6-0.3-0.6-0.7-0.2c-1.4-0.2-2.8-0.4-4.3-0.6c-0.2-0.4-0.4-0.4-0.6,0
		c-0.1,0-0.3,0-0.4,0.1c-0.1-0.2-0.2-0.5-0.5-0.2c-0.4,0-0.8,0-1.2-0.3c-0.1-0.3-0.2-0.5-0.5-0.2c-0.2,0-0.4-0.1-0.7-0.1
		c-0.2-0.5-0.5-0.3-0.8-0.1c-0.2,0-0.3,0-0.5,0c-0.1,0-0.2,0-0.2-0.1c-0.1-0.4-0.3-0.4-0.6-0.3c-0.4-0.1-0.7-0.1-1.1-0.2
		c-0.1-0.3-0.2-0.5-0.5-0.1c-0.4,0-0.8-0.1-1.2-0.1c-0.4-0.5-0.9-0.7-1.5-0.3c-0.7-0.1-1.4-0.3-2.1-0.4c-0.2-0.2-0.5-0.2-0.7-0.2
		c-0.1,0-0.3-0.1-0.4-0.1c-0.3-0.6-0.8-0.5-1.2-0.2c-0.2-0.1-0.5-0.2-0.7-0.3c-0.1-0.3-0.2-0.6-0.5-0.2c-2.4-0.2-4.6-1.1-6.9-1.6
		c-0.1-0.2-0.2-0.5-0.5-0.2c-0.7-0.2-1.4-0.4-2.1-0.6c-0.1-0.3-0.3-0.4-0.6-0.2c-1.1-0.2-2.2-0.5-3.2-0.9c-0.1-0.4-0.5-0.4-0.8-0.4
		c-0.2-0.1-0.4-0.1-0.6-0.2c-0.1-0.2-0.3-0.4-0.5-0.1c-0.5-0.2-0.9-0.4-1.4-0.2c-0.1,0-0.1-0.1-0.2-0.1c-0.1-0.4-0.2-0.5-0.6-0.3
		c-0.2,0-0.3,0-0.5,0c-0.1-0.2-0.3-0.3-0.4-0.5c-0.1-0.3-0.3-0.5-0.6-0.3c-0.7-0.1-1.3-0.6-2.1-0.4c-0.1,0-0.1-0.1-0.2-0.1
		c-0.1-0.6-0.6-0.5-1-0.6c-0.3-0.8-1.1-0.6-1.7-0.7c-0.1,0-0.1-0.1-0.2-0.1c-0.3-0.3-0.5-0.8-1-0.3c-0.2-0.1-0.4-0.2-0.7-0.4
		c-0.1-0.2-0.2-0.5-0.5-0.2c-0.4-0.2-0.8-0.4-1.2-0.6c-0.1-0.3-0.3-0.4-0.6-0.3c-0.6-0.3-1.2-0.6-1.9-0.8c-0.2-0.6-0.6-0.7-1.2-0.5
		c-0.1,0-0.3,0-0.4,0l0,0c-0.1-0.2-0.2-0.3-0.2-0.5c-0.1-0.3-0.2-0.5-0.6-0.3c-0.3-0.1-0.6-0.1-0.9-0.2c-0.1,0-0.1-0.1-0.2-0.2
		c0-0.1,0-0.2-0.1-0.3c-0.1-0.5-0.4-0.5-0.7-0.2c-0.2,0-0.3,0-0.5,0c-0.1-0.1-0.2-0.2-0.2-0.3c-0.1-0.3,0.1-0.8-0.5-0.4
		c-0.6,0-1-0.3-1.4-0.7c-0.1-0.3-0.1-0.6-0.5-0.2c-0.2,0-0.4,0-0.7,0c-0.1-0.1-0.3-0.2-0.4-0.4c0-0.1,0-0.2-0.1-0.3
		c-0.1-0.3-0.1-0.6-0.5-0.2c-0.3-0.1-0.6-0.2-0.9-0.2c-0.1-0.1-0.2-0.2-0.3-0.2c0-0.5-0.6-0.6-0.7-0.9c-0.1-0.5-0.3-0.6-0.7-0.2
		c-0.1,0-0.3,0-0.4,0c-0.1-0.1-0.2-0.2-0.3-0.2c-0.1-0.2-0.2-0.3-0.2-0.5c-0.1-0.3-0.1-0.6-0.5-0.2c-0.5,0-0.7-0.6-1.2-0.5l0,0
		c-0.1-0.5-0.5-0.6-0.7-1c-0.1-0.7-0.7-0.7-1.2-0.7c-0.3-0.3-0.7-0.6-1-0.9c-0.1-0.5-0.4-0.8-0.9-0.5c-0.1,0-0.3,0-0.4,0
		c-0.3-0.3-0.6-0.6-0.9-0.9c0.1-0.3-0.1-0.4-0.3-0.6c-0.3-0.8-0.9-1-1.6-0.8c-0.4-0.2-0.6-0.5-0.8-0.8c0-0.5-0.4-0.7-0.7-1
		c-0.2-0.8-0.6-1.4-1.5-1.4c-0.6-0.1-0.7-0.8-1.3-0.8l-0.1-0.1c-0.1-0.5-0.5-0.7-0.8-1.1c-0.2-1-0.7-1.4-1.7-1.4
		c-0.2-0.1-0.4-0.2-0.6-0.3c-0.1-0.1-0.3-0.3-0.4-0.4c0.1-0.3-0.1-0.5-0.3-0.7c-1.2-1.2-2.3-2.4-3.3-3.8c-1.5-2-3.2-3.8-4.4-6
		c0.1-0.3-0.1-0.5-0.4-0.5c-0.3-0.3-0.6-0.5-0.7-1c0.2-0.7-0.1-1.2-0.7-1.4c0-0.1,0-0.1-0.1-0.2c0.1-0.5-0.2-0.7-0.7-0.8
		c-0.5-0.7-0.6-1.7-1.5-2c-0.1-0.1-0.1-0.1-0.1-0.2c0-0.2,0-0.3,0-0.5c0.4-1.2-0.5-1.8-1.2-2.4c-0.1-0.3-0.3-0.6-0.4-0.9
		c0.2-0.6,0.2-1.1-0.6-1.3c0-0.1,0-0.1-0.1-0.2c0-0.6-0.2-1.2-0.9-1.5c0-0.1-0.1-0.3-0.1-0.4c0-0.7-0.1-1.4-0.8-1.8
		c-0.1-0.2-0.1-0.4-0.2-0.6c0.1-0.7-0.1-1.4-0.8-1.8c-0.1-0.4-0.3-0.7-0.4-1.1c0.2-0.3,0-0.5-0.2-0.6c0-0.5-0.4-0.9-0.6-1.3
		c-0.3-0.7,0.1-1.8-0.9-2.2c-0.1-0.2-0.2-0.5-0.2-0.7c0.5-0.6,0.2-1-0.4-1.2c-0.1-0.3-0.2-0.6-0.3-0.9c0.3-0.6,0.1-0.9-0.4-1.2
		c-0.1-0.3-0.2-0.6-0.3-0.9c0.4-0.4,0.3-0.6-0.2-0.7c-0.1-0.5-0.3-0.9-0.3-1.4c0.3-0.9-0.2-1.7-0.6-2.5c0-0.1,0-0.3-0.1-0.4
		c0.5-0.9-0.3-1.6-0.4-2.5c-0.1-1.8-0.4-3.6-1.2-5.3c0-0.1,0-0.2,0-0.4c0.6-0.4,0.4-0.7-0.1-1c0-0.1,0-0.2-0.1-0.3
		c0.6-0.8,0.2-1.4-0.3-1.9c0-0.4,0-0.8,0-1.1c0.2-0.1,0.4-0.2,0.4-0.4c-0.4-1,0-2.1-0.3-3c-0.2-0.6,0.3-1.3-0.5-1.7
		c0-0.7,0-1.4-0.1-2.1c0.4-0.6,0-1-0.3-1.4c0-0.2,0-0.3,0-0.5c0.3-0.3,0.1-0.4-0.2-0.5c0-0.5,0-0.9-0.1-1.4c0.3-0.3,0.5-0.7,0.4-1.2
		c-0.6-2.2-0.6-4.4-1.1-6.6c-0.1-0.4-0.2-0.8-0.6-0.9c-0.2-1.2-0.3-2.3-0.5-3.5c0.9-1,0-1.7-0.5-2.5c0-0.3-0.1-0.6-0.1-0.9
		c0-1.4,0-2.7-0.9-3.9c0-0.4,0-0.8,0-1.1c0.3-0.4,0.2-0.6-0.3-0.7c0-0.1-0.1-0.3-0.1-0.4c0-1.1,0.3-2.3-0.8-3.2
		c-0.1-0.5-0.2-0.9-0.3-1.4c-0.1-1.5-0.4-2.9-1.4-4.1c0-0.1,0-0.3-0.1-0.4c0.2-1.3-0.1-2.4-0.9-3.4c-0.2-0.3-0.3-0.6-0.5-0.9
		c0.3-0.4,0.3-0.8-0.2-1c-0.1-0.3-0.3-0.6-0.4-0.9c0.1-0.6,0-1.2-0.5-1.6c-0.1-0.3-0.2-0.6-0.3-0.9c0.4-0.7-0.2-0.8-0.6-1
		c0-0.1,0-0.3-0.1-0.4c-0.1-0.8,0-1.7-0.7-2.4c-0.1-0.2-0.2-0.4-0.3-0.7c-0.1-1.1-0.3-2.1-1.3-2.7c-0.1-0.2-0.1-0.4-0.2-0.6
		c0-0.7,0-1.3-0.8-1.5c-0.2-0.5-0.4-0.9-0.6-1.4c-0.1-0.9-0.1-1.8-1.1-2.2c-0.5-0.6-0.9-1.3-1.1-2.1c0.2-0.9-0.3-1.4-1.1-1.8
		c0-0.1-0.1-0.1-0.1-0.2c0.1-0.3-0.1-0.5-0.4-0.5c-0.1-0.2-0.2-0.5-0.3-0.7c0.3-0.9-0.3-1.9-1.6-2.7c-0.2-0.4-0.4-0.7-0.6-1.1
		c0.1-0.4-0.1-0.5-0.4-0.5c-0.4-0.3-0.6-0.7-0.8-1.2c0.1-0.3-0.1-0.5-0.4-0.5c0-0.1-0.1-0.1-0.1-0.2c-0.6-1.8-1.6-3.2-3-4.4l0,0
		c-0.1-1.1-1-1.5-1.7-2.2l0,0c-0.9-1.7-2.3-3.1-3.7-4.5c-0.2-0.2-0.5-0.6-0.6,0c-0.2-0.1-0.3-0.3-0.5-0.4c0-0.6-0.3-0.9-0.8-1
		c-0.1,0-0.1-0.1-0.1-0.2c-0.3-1.1-1.3-1.6-1.9-2.4c-0.2-0.9-0.7-1.6-1.8-1.6c-0.7-0.3-1.1-1-1.7-1.5c-0.2-1-1-1.2-1.9-1.5
		c-0.5-0.5-1-0.9-1.5-1.4c-0.1-0.3-0.1-0.6-0.5-0.2c-0.3-0.1-0.5-0.2-0.8-0.3c-0.1-0.1-0.2-0.2-0.3-0.3c0-0.4-0.4-0.5-0.6-0.8
		c-0.1-0.7-0.5-1-1.2-0.7c-0.2,0-0.3,0-0.5,0c-0.3-0.3-0.6-0.6-0.9-0.9c-0.1-0.2-0.2-0.4-0.3-0.5c-0.1-0.3-0.1-0.6-0.5-0.2
		c-0.6-0.1-0.8-0.5-1.2-0.9c-0.5-0.5-1.1-1.1-1.9-1c-0.1,0-0.1-0.1-0.2-0.1c0-0.3-0.2-0.4-0.3-0.6c-0.2-0.8-0.7-1-1.4-0.7
		c0,0,0,0.1,0,0.1c0,0,0,0.1,0.1,0.1c-0.2-0.2-0.4-0.4-0.6-0.6c0-0.4-0.2-0.5-0.5-0.6c-0.1-0.5-0.5-0.7-1-0.7
		c-0.2-0.2-0.5-0.4-0.7-0.5c-0.1-0.3-0.2-0.5-0.6-0.3c-0.3,0-0.6-0.1-0.9-0.1c-0.2-0.2-0.4-0.4-0.7-0.6c0-0.1,0-0.2-0.1-0.3
		c-0.1-0.5-0.4-0.6-0.7-0.2c-0.3,0-0.5-0.2-0.7-0.5c-0.1-0.3-0.1-0.6-0.5-0.3c-0.6-0.1-1-0.4-1.4-0.8c-0.1-0.3-0.2-0.5-0.5-0.2
		c-0.3-0.1-0.6-0.2-0.9-0.3c-0.1,0-0.1-0.1-0.2-0.1c-0.3-0.5-0.8-0.6-1.3-0.6c-0.1,0-0.1-0.1-0.2-0.1c0-0.2-0.1-0.3-0.3-0.4
		c-0.1-0.3-0.2-0.5-0.5-0.2c-0.8-0.4-1.5-0.9-2.4-1c-0.1-0.1-0.1-0.1-0.2-0.2c-0.2-0.7-0.8-0.5-1.3-0.5c-0.1-0.1-0.3-0.2-0.4-0.2
		c-0.4-0.3-0.8-0.5-1.2-0.8c-0.2-0.4-0.4-0.6-0.8-0.2c-0.3-0.2-0.6-0.3-0.9-0.5c-0.2-0.4-0.4-0.5-0.7-0.2c-0.5-0.5-1.3-0.5-1.9-0.8
		c-0.1-0.3-0.2-0.5-0.5-0.2c-0.2,0-0.5,0-0.7,0c-0.1,0-0.1-0.1-0.2-0.1c-0.3-0.6-1.1-0.3-1.5-0.8c-0.1-0.5-0.4-0.6-0.7-0.2
		c-0.6-0.4-1.3-0.7-2-0.6c-0.1,0-0.2,0-0.4-0.1c-0.2-0.4-0.7-0.3-0.9-0.6c-0.2-0.4-0.4-0.6-0.7-0.2c-0.6-0.2-1.2-0.4-1.9-0.6
		c-0.1-0.2-0.2-0.5-0.5-0.2c-0.5-0.1-0.9-0.6-1.4-0.5c-0.4-0.7-1.1-0.7-1.7-0.6c-0.5-0.1-1.1-0.1-1.6-0.4c-0.1-0.2-0.3-0.5-0.5-0.1
		c-0.2,0-0.5,0-0.7,0c-0.1,0-0.1,0-0.2-0.1c-0.1-0.6-0.6-0.4-1-0.4c-1.7-0.4-3.3-0.8-5-1.3c-0.4-0.4-0.8-0.8-1.3-0.3
		c-0.2,0.1-0.5,0.1-0.6-0.1c-0.1-0.3-0.2-0.6-0.5-0.2c-0.2,0-0.5-0.1-0.7-0.1c-0.2-0.4-0.4-0.5-0.8-0.2c-0.6-0.2-1.3-0.4-2-0.2
		c-0.1,0-0.3,0-0.4,0c-0.6-0.7-1.4-0.4-2.1-0.6c-0.1-0.3-0.3-0.5-0.6-0.1l0,0.1c0,0,0.1,0.1,0.1,0.1c-0.1,0-0.3,0-0.4,0
		c-0.2-0.1-0.3-0.2-0.5-0.3c-0.1-0.3-0.1-0.6-0.5-0.2c-0.8-0.1-1.6-0.2-2.4-0.3c-0.1-0.5-0.5-0.4-0.9-0.5c-1.2-0.2-2.3-0.2-3.4-0.6
		c-0.2-0.1-0.6-0.1-0.8,0.2c-0.5,0.1-1.1,0.1-1.6-0.1c-0.1-0.2-0.3-0.5-0.5-0.2c-0.2,0-0.4,0-0.7-0.1c-0.2-0.4-0.5-0.5-0.8-0.1
		c-0.6,0-1.1-0.1-1.7-0.1c-0.4-0.6-0.9-0.7-1.5-0.3c-0.1,0-0.3,0-0.4,0c-0.6-0.6-1.3-0.4-2-0.1c-0.4-0.1-0.8-0.1-1.2-0.2
		c-0.1-0.2-0.2-0.5-0.5-0.2c-0.2,0-0.5,0-0.7,0c-0.1-0.5-0.3-0.5-0.5-0.1c-1.3,0.2-2.7-0.3-4-0.2c-0.2-0.5-0.4-0.6-0.7-0.1
		c-0.8,0-1.6-0.4-2.4-0.2c-0.3-0.5-0.7-0.4-1,0c-0.1,0-0.2,0-0.4,0c-0.2-0.4-0.4-0.4-0.6,0c-0.2,0-0.4,0-0.6,0
		c-0.2-0.4-0.3-0.5-0.6-0.1c-0.3,0-0.6,0.1-0.9,0.1c-0.2,0-0.5,0-0.7,0c-0.2-0.4-0.5-0.3-0.8-0.3c-1.3,0-2.7,0-4,0
		c-0.1-0.4-0.3-0.5-0.6-0.1c-0.2,0-0.4,0-0.6,0c-0.2-0.4-0.3-0.4-0.6-0.1c-0.2,0-0.4,0-0.6,0c-0.2-0.4-0.4-0.4-0.6,0
		c-0.5,0-1.1,0.1-1.6,0.1c-0.1-0.2-0.3-0.3-0.5-0.1c-0.3,0-0.6,0-0.9,0c-0.1-0.2-0.2-0.4-0.5-0.3c-0.2,0.1-0.3,0.2-0.3,0.4
		c0,0,0,0,0,0c-0.2,0-0.3-0.1-0.5-0.1c-0.3-0.5-0.5-0.5-0.8,0c-0.2,0-0.4,0-0.6,0c-0.2-0.4-0.4-0.4-0.6,0c-0.2,0-0.4,0-0.6,0
		c-0.5-0.7-0.8-0.1-1.2,0.1c-0.4-0.1-0.8,0-1.2,0.1c-0.3-0.5-0.5-0.3-0.8,0c-0.2,0-0.4,0-0.6,0c-0.2-0.4-0.4-0.4-0.6,0
		c-0.2,0-0.4,0-0.6,0c-0.5-0.8-1-0.1-1.5,0c-1.6,0-3.2-0.2-4.8,0.2c-0.3-0.5-0.5-0.5-0.8,0c-0.2,0-0.4,0-0.6,0
		c-0.2-0.4-0.4-0.4-0.6,0c-0.1,0-0.2,0-0.4,0c-0.2-0.4-0.4-0.6-0.8-0.1c-0.7-0.1-1.3,0-1.9,0.3c-0.3-0.4-0.5-0.3-0.8,0
		c-0.3,0.1-0.6,0.2-0.9,0.1c-0.2-0.4-0.4-0.4-0.6,0c-0.2,0-0.4,0-0.6,0c-0.5-0.6-0.8-0.1-1.2,0.1c-0.3,0-0.6,0.1-0.9,0.1
		c-0.3-0.1-0.5-0.2-0.8,0.1c-0.4,0.1-0.8,0.1-1.2,0.2c-0.8-0.6-1.5-0.2-2.3,0.2c-0.5,0.2-1.1-0.1-1.6,0c-0.2-0.6-0.5-0.6-0.8,0
		c-0.2,0.1-0.4,0.2-0.5,0.5c-0.1,0.1-0.1,0.1-0.2,0.1c-0.2-0.4-0.6-0.3-1-0.3c-0.4-0.1-0.8-0.8-1.2,0c-0.7,0.4-1.4,0.2-2.1,0.3
		c-0.3-0.5-0.5-0.3-0.8,0.1c-0.1,0-0.3,0.1-0.4,0.1c-0.4-0.4-0.7-0.4-1,0.1c-0.1,0-0.3,0.1-0.4,0.1c-0.1-0.2-0.3-0.3-0.5,0
		c-0.3,0-0.6,0.1-0.9,0.1c-0.3-0.1-0.5-0.1-0.8,0.1c-0.4,0-0.8,0.1-1.2,0.1c-0.2-0.5-0.4-0.3-0.5,0c-0.7,0.1-1.4,0.2-2.1,0.2
		c-1.1-0.6-2.1,0-3.2,0.3c-0.9,0.3-1.7,0.5-2.6,0.5c-0.3-0.4-0.6-0.2-0.8,0.2c-0.1,0-0.3,0.1-0.4,0.1c-0.5-0.3-0.9-0.4-1.3,0.1
		c-0.1,0-0.3,0.1-0.4,0.1c-0.4,0.2-0.9-0.6-1.3,0.1c-0.3,0.1-0.6,0.2-0.9,0.3c0-0.2,0-0.3-0.2-0.3c-0.2,0-0.2,0.2-0.3,0.3
		c-0.3,0.1-0.6,0.1-0.9,0.2c-0.2-0.4-0.4-0.4-0.6,0c-0.2,0.1-0.4,0.2-0.7,0.3c-0.3-0.2-0.6-0.8-1-0.1c-0.1,0.1-0.3,0.2-0.3,0.4
		c-0.1,0.1-0.3,0.1-0.4,0.2c-0.5-0.6-1-0.2-1.4-0.1c-0.2-0.2-0.3-0.2-0.5,0c-0.2,0-0.3,0-0.5,0c-0.4,0.3-1.1-0.6-1.4,0.2
		c-1.4,0.3-2.7,0.6-4.1,1c-0.5-0.3-0.9-0.4-1.2,0.2c-0.5,0.3-1.1,0.3-1.6,0.3c-1.1,0-2.2,0-3.2,0.7c-0.7,0.4-1.6,0.2-2.3,0.4
		c-0.9-0.1-1.8-0.1-2.5,0.5c-0.3,0.1-0.6,0.2-0.9,0.3c-0.4-0.3-0.7-0.3-1,0.2c-0.1,0-0.3,0.1-0.4,0.1c-0.4-0.4-0.8-0.4-1,0.2
		c-0.3,0.1-0.6,0.2-0.9,0.3c-0.3-0.3-0.6-0.2-0.8,0.2c-0.6,0-1,0.6-1.6,0.5c-0.2-0.4-0.4-0.4-0.6,0c-0.1,0.1-0.3,0.2-0.3,0.4
		c-0.1,0.1-0.1,0.1-0.2,0.1c-0.2,0-0.5,0-0.7,0c-0.2-0.4-0.4-0.5-0.6,0c-0.5,0.1-0.8,0.6-1.3,0.5c-0.2-0.4-0.4-0.4-0.6,0
		c-0.3,0.3-0.7,0.4-1.2,0.4c-0.3-0.4-0.4-0.2-0.5,0.1c-0.4,0.1-0.8,0.3-1.2,0.4c-0.3-0.5-0.5-0.4-0.8,0c-0.4,0.1-0.7,0.4-1.2,0.4
		c-0.3-0.5-0.6-0.3-0.8,0.1c-0.4,0.2-0.7,0.5-1.1,0.5c-0.2-0.4-0.4-0.4-0.6,0c-0.6,0.2-1.2,0.6-1.9,0.5c-0.3-0.3-0.4-0.1-0.5,0.2
		c-0.2,0.1-0.5,0.2-0.7,0.3C-164.7,1046.3-164.8,1046.3-165,1046.3z"/>
	<path class="st0" d="M674.9,1249.3c0,21.5,0,43,0,64.5c0,0.8-0.2,1-1,1c-279.3,0-558.7,0-838,0c-1,0-1-0.4-1-1.1
		c0-72.2,0-144.4,0-216.6c2.1-0.7,4.1-1.7,6.1-2.6c2.4-1.1,4.8-2,7.3-2.9c2.3-0.9,4.7-1.7,7-2.5c2.5-0.9,5-1.6,7.5-2.5
		c2.4-0.8,4.7-1.7,7.1-2.3c4-1.1,8-2.2,12-3.2c3.8-1,7.6-1.7,11.4-2.6c5.4-1.2,10.8-2,16.3-2.7c4.8-0.6,9.5-1.1,14.3-1.4
		c5.8-0.4,11.7-0.3,17.5,0c4,0.2,8,0.5,12,1.1c4.6,0.7,9.1,1.7,13.5,2.8c7.3,1.8,14.4,4.3,21.2,7.7c4,2,8.1,4,11.7,6.8
		c2.2,1.8,4.6,3.3,6.9,5.1c3.2,2.4,6.1,5.1,8.9,7.8c3,2.9,5.8,6,8.4,9.2c3.6,4.5,6.8,9.2,9.9,14.1c3.7,5.9,6.5,12.3,9.3,18.6
		c2.3,5.2,4.2,10.5,6,15.9c2.6,7.6,4.5,15.4,6.4,23.2c1.6,6.7,2.6,13.6,3.7,20.4c1,6.9,1.7,13.9,3.2,20.7c1.1,5.4,2.5,10.8,4.3,16.1
		c1.5,4.3,3.1,8.5,5.2,12.6c1.6,3.3,3.3,6.5,5.3,9.5c2.2,3.3,4.4,6.6,7,9.6c2.6,3.1,5.4,6,8.3,8.8c3.3,3.2,7.1,5.9,10.9,8.5
		c2.7,1.8,5.5,3.5,8.4,5c2.9,1.5,5.8,3,8.8,4.2c3.9,1.5,7.9,3.1,11.9,4.4c3.7,1.2,7.5,2,11.3,2.9c6.2,1.4,12.4,2.2,18.7,3
		c4.4,0.6,8.8,0.8,13.3,1c5.6,0.2,11.3,0.2,16.9,0.1c4-0.1,8.1-0.4,12.1-0.5c2.4-0.1,4.7-0.3,7.1-0.5c3-0.3,5.9-0.6,8.9-0.9
		c3.2-0.4,6.4-0.8,9.6-1.2c3.6-0.5,7.1-1,10.7-1.5c3.4-0.5,6.7-1.3,10.1-1.8c3.6-0.5,7.1-1.3,10.7-2c3.7-0.7,7.3-1.5,10.9-2.4
		c4.4-1,8.9-2.1,13.3-3.2c3.4-0.8,6.8-1.7,10.2-2.5c2.8-0.7,5.5-1.5,8.2-2.2c1.5-0.4,2.9-0.9,4.3-1.3c2.3-0.5,4.5-1.3,6.8-1.9
		c1.8-0.5,3.6-1.1,5.5-1.6c1.5-0.5,3.1-0.8,4.5-1.4c2.5-0.9,5-1.6,7.5-2.4c1.7-0.6,3.5-1,5.2-1.6c2.3-0.9,4.7-1.6,7.1-2.3
		c2.4-0.7,4.7-1.5,7.1-2.2c2.6-0.7,5-2,7.6-2.7c3.3-1,6.5-2.3,9.8-3.3c0.9-0.3,1.7-0.5,2.6-0.8c2-0.8,4-1.4,6-2.2
		c1.2-0.5,2.5-0.7,3.7-1.4c1.1-0.6,2.3-1,3.5-1.4c1.8-0.6,3.5-1.2,5.2-1.9c2-0.8,4.1-1.6,6.1-2.3c1.9-0.7,3.7-1.3,5.6-2.1
		c2.1-0.8,4.2-1.6,6.2-2.4c2.9-1.2,5.8-2.2,8.7-3.3c2.2-0.9,4.4-1.9,6.6-2.8c2.9-1.2,5.9-2.4,8.9-3.5c3-1.1,6-2.4,8.9-3.6
		c3.1-1.2,6.1-2.4,9.2-3.7c2-0.8,3.9-1.7,5.9-2.5c2-0.8,4.1-1.4,6.1-2.4c1.5-0.7,3-1.3,4.5-1.8c1.8-0.7,3.7-1.4,5.6-2.1
		c1.9-0.7,3.7-1.3,5.6-1.9c1.7-0.6,3.5-1.1,5.2-1.7c1.6-0.5,3.2-1.1,4.8-1.5c1.5-0.4,3.1-0.6,4.6-1.1c2.1-0.7,4.3-1.3,6.4-1.7
		c2.5-0.5,5-1.3,7.6-1.7c2.1-0.3,4.1-0.8,6.2-1.2c2.2-0.4,4.4-0.7,6.6-1.1c3.2-0.5,6.3-1.1,9.5-1.4c4-0.3,8-0.9,12-1.1
		c4.9-0.3,9.9-0.5,14.8-0.6c4.4,0,8.7,0,13.1,0.2c3.8,0.2,7.6,0.4,11.4,0.8c3.1,0.4,6.2,0.9,9.3,1.2c4.7,0.4,9.3,1.3,13.9,2.2
		c4.7,0.9,9.4,2,14,3.3c6.7,1.8,13.3,3.6,19.8,6.1c4.2,1.6,8.4,3,12.5,4.9c1.5,0.7,3,1.2,4.5,1.9c2.5,1.3,5.1,2.4,7.6,3.6
		c2.5,1.2,4.9,2.5,7.3,3.7C671.8,1247.6,673.2,1248.7,674.9,1249.3z"/>
	<path class="st1" d="M674.9,1249.3c-1.7-0.6-3.2-1.7-4.8-2.5c-2.5-1.2-4.9-2.5-7.3-3.7c-2.5-1.2-5.1-2.3-7.6-3.6
		c-1.4-0.7-3-1.2-4.5-1.9c-4.1-1.9-8.3-3.3-12.5-4.9c-6.5-2.4-13.1-4.2-19.8-6.1c-4.6-1.3-9.3-2.4-14-3.3c-4.6-0.8-9.2-1.7-13.9-2.2
		c-3.1-0.3-6.2-0.8-9.3-1.2c-3.8-0.5-7.6-0.7-11.4-0.8c-4.4-0.2-8.7-0.3-13.1-0.2c-4.9,0-9.9,0.3-14.8,0.6c-4,0.2-8,0.8-12,1.1
		c-3.2,0.3-6.3,0.9-9.5,1.4c-2.2,0.3-4.4,0.7-6.6,1.1c-2.1,0.4-4.1,0.9-6.2,1.2c-2.6,0.4-5.1,1.2-7.6,1.7c-2.2,0.4-4.3,1-6.4,1.7
		c-1.5,0.5-3.1,0.7-4.6,1.1c-1.6,0.5-3.2,1-4.8,1.5c-1.7,0.6-3.5,1.1-5.2,1.7c-1.9,0.6-3.8,1.3-5.6,1.9c-1.9,0.7-3.7,1.4-5.6,2.1
		c-1.5,0.6-3,1.1-4.5,1.8c-1.9,1-4,1.6-6.1,2.4c-2,0.8-3.9,1.7-5.9,2.5c-3.1,1.2-6.1,2.4-9.2,3.7c-3,1.2-5.9,2.5-8.9,3.6
		c-3,1.1-5.9,2.3-8.9,3.5c-2.2,0.9-4.4,1.9-6.6,2.8c-2.9,1.2-5.8,2.1-8.7,3.3c-2.1,0.9-4.1,1.6-6.2,2.4c-1.8,0.7-3.7,1.4-5.6,2.1
		c-2,0.8-4.1,1.5-6.1,2.3c-1.7,0.7-3.5,1.3-5.2,1.9c-1.2,0.4-2.5,0.8-3.5,1.4c-1.2,0.7-2.5,0.9-3.7,1.4c-2,0.8-4,1.4-6,2.2
		c-0.8,0.3-1.7,0.5-2.6,0.8c-3.3,1.1-6.5,2.4-9.8,3.3c-2.6,0.7-5,2-7.6,2.7c-2.4,0.7-4.8,1.5-7.1,2.2c-2.4,0.7-4.8,1.5-7.1,2.3
		c-1.7,0.6-3.5,1.1-5.2,1.6c-2.5,0.8-5,1.5-7.5,2.4c-1.5,0.5-3,0.9-4.5,1.4c-1.8,0.5-3.6,1.2-5.5,1.6c-2.3,0.6-4.5,1.3-6.8,1.9
		c-1.4,0.3-2.9,0.9-4.3,1.3c-2.8,0.7-5.5,1.5-8.2,2.2c-3.4,0.9-6.8,1.7-10.2,2.5c-4.4,1.1-8.9,2.1-13.3,3.2
		c-3.6,0.8-7.3,1.6-10.9,2.4c-3.6,0.7-7.1,1.5-10.7,2c-3.4,0.5-6.8,1.3-10.1,1.8c-3.6,0.6-7.1,1.1-10.7,1.5
		c-3.2,0.4-6.4,0.8-9.6,1.2c-2.9,0.3-5.9,0.6-8.9,0.9c-2.4,0.2-4.7,0.5-7.1,0.5c-4,0.1-8.1,0.4-12.1,0.5c-5.7,0.1-11.3,0.1-16.9-0.1
		c-4.4-0.1-8.9-0.4-13.3-1c-6.3-0.8-12.5-1.7-18.7-3c-3.8-0.8-7.6-1.7-11.3-2.9c-4-1.3-8-2.8-11.9-4.4c-3-1.2-5.9-2.7-8.8-4.2
		c-2.9-1.5-5.7-3.2-8.4-5c-3.8-2.6-7.6-5.3-10.9-8.5c-2.9-2.8-5.6-5.7-8.3-8.8c-2.6-3-4.8-6.3-7-9.6c-2-3-3.7-6.3-5.3-9.5
		c-2-4.1-3.7-8.3-5.2-12.6c-1.8-5.3-3.2-10.6-4.3-16.1c-1.4-6.9-2.1-13.8-3.2-20.7c-1-6.8-2.1-13.7-3.7-20.4
		c-1.8-7.8-3.8-15.6-6.4-23.2c-1.8-5.4-3.7-10.7-6-15.9c-2.8-6.4-5.6-12.7-9.3-18.6c-3.1-4.9-6.3-9.6-9.9-14.1
		c-2.6-3.2-5.4-6.3-8.4-9.2c-2.8-2.8-5.7-5.5-8.9-7.8c-2.3-1.7-4.7-3.3-6.9-5.1c-3.6-2.8-7.6-4.8-11.7-6.8
		c-6.8-3.3-13.8-5.9-21.2-7.7c-4.5-1.1-9-2.1-13.5-2.8c-4-0.6-8-0.9-12-1.1c-5.8-0.3-11.7-0.4-17.5,0c-4.8,0.3-9.5,0.8-14.3,1.4
		c-5.5,0.7-10.9,1.5-16.3,2.7c-3.8,0.8-7.6,1.6-11.4,2.6c-4,1-8,2.2-12,3.2c-2.4,0.6-4.8,1.5-7.1,2.3c-2.5,0.8-5,1.6-7.5,2.5
		c-2.4,0.8-4.7,1.6-7,2.5c-2.4,0.9-4.9,1.9-7.3,2.9c-2,0.9-4,1.8-6.1,2.6c0-16.6,0-33.3,0-49.9c2.4-0.7,4.7-1.6,7.1-2.1
		c1.5-0.3,3-0.8,4.5-1.2c0.7-0.2,1.8,0.2,2.3-0.8c0.1,0,0.1-0.1,0.2-0.1c1.2,0.3,2.2-0.3,3.3-0.6c2.6-0.5,5.2-1.1,7.8-1.6
		c1.3-0.3,2.7-0.3,3.9-0.9c1.9,0,3.7-0.7,5.5-1.1c0.9-0.2,1.9,0,2.7-0.6c0.1,0,0.1,0,0.2-0.1c0.5-0.2,1.1,0.4,1.5-0.2
		c0.4-0.4,1,0.3,1.4-0.3c0.1-0.1,0.3-0.1,0.4-0.2c0.4,0,0.9,0.5,1.3,0c1.5-0.2,3.1-0.3,4.5-0.7c1.5-0.1,3-0.2,4.4-0.6
		c3.2-0.9,6.4-0.7,9.6-1.3c2.1-0.4,4.3-0.3,6.4-0.9c0.2,0,0.3,0,0.5,0c0.3,0.1,0.7,0.5,1,0c0.1,0,0.2,0,0.2-0.1c0.7,0.1,1.5,0,2.2,0
		c0.6,0,1.4,0.2,1.9-0.4c0.2-0.1,0.4-0.1,0.6-0.2c0.2,0.4,0.6,0.3,0.9,0.3c3.5-0.3,7-0.7,10.5-0.7c4.6,0,9.1-0.3,13.7-0.5
		c0.5,0,1.2,0.4,1.6-0.3c0,0,0,0,0,0c0.1,0,0.3,0,0.4,0.1c0.2,0.3,0.4,0.3,0.7,0.3c1.5,0,2.9,0,4.4,0c2-0.1,4,0.4,6.1-0.1
		c0.2,0,0.5,0,0.7,0c0.1,0.4,0.5,0.3,0.8,0.3c1.5,0,3,0,4.5,0.1c1.4,0.1,2.8,0.4,4.3,0.5c3.8,0.1,7.6,0.7,11.4,1
		c2,0.2,4.1,0.5,6.1,0.9c1.4,0.3,2.9,0.2,4.2,0.8c0.2,0.1,0.5,0.2,0.6-0.2c0.1,0,0.3,0,0.4,0c0.8,0.6,1.9,0.8,2.6,0.5
		c0.1,0,0.3,0,0.4,0c0.2,0.7,0.9,0.4,1.3,0.5c3.3,0.8,6.7,1.6,10,2.4c0.2,0.1,0.4,0.1,0.5-0.1c0.1,0.1,0.1,0.1,0.2,0.1
		c0.1,0.5,0.5,0.5,0.8,0.5c0.7,0.2,1.4,0.3,2,0.6c2.3,0.8,4.6,1.5,6.9,2.3c0.2,0.1,0.3,0,0.4-0.2c0.1,0,0.2,0,0.4,0.1
		c1.3,0.9,2.7,1.5,4.2,1.6c0.1,0.1,0.1,0.1,0.2,0.1c0,0.3,0.2,0.4,0.4,0.5c1.9,0.5,3.7,1.3,5.5,2.2c0.3,0.1,0.6,0.2,0.9,0
		c0.1,0.1,0.3,0.2,0.4,0.2c0.2,0.7,0.7,0.7,1.3,0.5c0.1,0.1,0.1,0.1,0.2,0.2c0.9,0.9,1.9,1.5,3.2,1.6c0,0.1,0.1,0.1,0.2,0.1
		c0.2,0.7,0.7,0.8,1.3,0.6c0.1,0,0.1,0.1,0.2,0.1c0.5,1.1,1.7,1.1,2.5,1.6c0.7,0.4,1.3,1.2,2.3,0.9c0.2,0.2,0.4,0.4,0.7,0.6
		c0,0.2,0.1,0.4,0.3,0.5c0.9,0.4,1.6,0.9,2.3,1.5c0.3,0.2,0.7,0.4,1.1,0.3c0.2,0.2,0.4,0.4,0.6,0.6c0.3,0.8,1,1,1.7,1.1
		c0,0.1,0.1,0.1,0.2,0.1c1,1.2,2.3,2,3.6,2.7c0.1,0,0.2,0,0.3,0c0.3,0.3,0.6,0.6,0.9,0.9c0.4,0.9,1.3,1.3,2.2,1.6
		c0.1,0.1,0.2,0.2,0.3,0.3c-0.1,0.4,0.1,0.5,0.3,0.7c2.2,1.7,4.2,3.6,6.3,5.4c1.1,0.9,2,2.1,3.3,2.9c0,0.1,0.1,0.1,0.1,0.2
		c0,0.6,0.3,0.9,0.8,1c0.2,0.1,0.3,0.3,0.5,0.4c0,0.3,0.2,0.4,0.4,0.5c-0.1,0.3,0.1,0.4,0.2,0.6c1.5,1.9,3.1,3.7,4.6,5.6
		c1.3,1.7,2.6,3.5,3.8,5.2c1.8,2.5,3.2,5.2,4.7,7.9c1.1,2.1,2.3,4.3,3.3,6.5c1.4,2.9,2.6,5.9,3.8,8.9c0.8,2,1.7,4,2.3,6
		c1,3.3,1.9,6.6,2.8,10c0.7,2.5,0.9,5.2,1.6,7.7c0.4,1.2,0.3,2.5,0.6,3.8c0.5,1.9,0.8,3.9,1.1,5.8c0.3,2.1,0.8,4.3,0.9,6.4
		c0.2,2.6,0.5,5.3,0.7,7.9c0.1,1.7,0,3.4,0.4,5.1c0.7,2.9,0.8,5.9,1.6,8.9c0.7,2.4,1.1,5,1.9,7.4c0.9,2.8,1.9,5.6,3,8.4
		c1.5,3.6,3.1,7.2,4.8,10.8c0.3,0.7,0.5,1.5,1.4,1.8c0,0.1,0.1,0.1,0.1,0.2c0.4,1.8,1.6,3.3,2.6,4.7c1.4,2.1,2.9,4,4.4,6.1
		c1.5,2.1,2.9,4.2,5.1,5.6c0.1,0.1,0.3,0.3,0.4,0.4c0.6,1.3,1.8,2.1,3,2.8c0,0,0.1,0.1,0.1,0.1c0.8,1.5,2,2.5,3.5,3.2
		c0.2,0.4,0.5,0.6,0.8,0.8c0.1,0.1,0.2,0.3,0.3,0.4c0.3,0.6,0.8,1,1.6,1c0.3,0.3,0.6,0.6,0.9,0.9c1.3,1.2,2.5,2.5,4.3,3.1l0,0
		c0.3,1,1.1,1.1,1.9,1.2c0.1,0.1,0.2,0.2,0.3,0.2c0.4,0.8,1.2,0.9,1.9,1.2c0.1,0.1,0.2,0.2,0.3,0.2c0.2,0.8,0.8,0.9,1.5,0.8
		c0.1,0.1,0.3,0.2,0.4,0.4c0.7,0.8,1.5,1.4,2.6,1.3c0.2,0,0.3,0.1,0.5,0.1c0.1,0.1,0.2,0.2,0.2,0.3c0.2,0.7,0.8,0.6,1.3,0.6
		c0,0.1,0.1,0.1,0.2,0.2c0.2,0.9,1,0.8,1.7,0.9l0,0c0,0.2,0.1,0.4,0.3,0.5c2.5,1,4.9,2.5,7.5,3.2c0.8,0.4,1.6,0.9,2.5,0.8
		c0.1,0.1,0.1,0.1,0.2,0.1c0.9,0.7,1.9,1.1,3.1,1.2c0.2,0,0.3,0,0.5,0c0.1,0.3,0.3,0.4,0.6,0.3c0.1,0.1,0.1,0.1,0.2,0.1
		c0,0.3,0.2,0.3,0.4,0.4c2.8,0.9,5.5,1.8,8.4,2.6c3.7,1,7.4,2,11.2,2.6c0.2,0,0.3,0,0.5,0c2.1,0.7,4.3,1.1,6.5,1.2
		c0.2,0.1,0.4,0.1,0.5-0.1c0.1,0,0.1,0.1,0.2,0.1c0,0.3,0.2,0.5,0.5,0.3c0.1,0,0.3,0,0.4,0c0.2,0.1,0.4,0.3,0.6,0.4
		c2.6,0.6,5.2,0.9,7.9,1c0.2,0.1,0.5,0.1,0.7,0c0,0,0,0,0,0c0.9,0.5,1.9,0.4,2.9,0.3c0.2,0,0.4,0,0.5,0.1c0.1,0.2,0.3,0.3,0.5,0.1
		c0.1,0,0.3,0,0.4,0c1.5,0.5,3.1,0.3,4.7,0.5c0.2,0,0.4,0,0.6,0c0.2,0.1,0.3,0.3,0.5,0.3c2.1-0.1,4.2,0.2,6.4,0.4
		c1,0.1,2.1,0.4,3.1-0.2c0.1,0,0.3,0,0.4-0.1c0.1,0.4,0.4,0.3,0.6,0.3c2.6,0,5.3,0.1,7.9,0.1c3.4,0.1,6.7,0.2,10.1,0.2
		c4.9,0,9.9,0,14.8-0.4c1.9-0.2,3.8,0,5.7-0.5c0.2,0,0.3,0,0.5,0c0.1,0.3,0.3,0.2,0.6,0.2c1.6-0.1,3.2-0.4,4.8-0.5
		c0.7,0,1.6,0.1,2.3-0.5c0,0,0,0,0,0c0.2,0,0.3,0,0.5,0l0,0c0.4,0.7,1.1,0.4,1.6,0.3c2.7-0.3,5.5-0.7,8.2-0.9
		c3.6-0.2,7.1-0.9,10.6-1.2c2.6-0.2,5.2-0.8,7.9-1c0.8-0.1,1.8-0.1,2.5-0.4c1.2-0.4,2.4-0.5,3.6-0.6c1.9-0.2,3.8-0.6,5.7-0.8
		c1.8-0.2,3.6-0.6,5.3-0.9c2.2-0.4,4.5-0.6,6.7-1.1c2.3-0.6,4.7-0.9,7.1-1.3c3.1-0.5,6.1-1.2,9.1-1.8c2.6-0.5,5.1-1,7.6-1.5
		c2.6-0.5,5.1-1.1,7.7-1.7c1.3-0.3,2.7-0.7,4-0.9c1.6-0.3,3.3-0.6,4.9-1.1c1.4-0.4,2.7-1,4.1-1.2c2.1-0.4,4.1-0.8,6.2-1.4
		c2.1-0.6,4.3-1.1,6.5-1.6c2.8-0.7,5.6-1.5,8.4-2.1c1.8-0.4,3.4-1.1,5.2-1.5c1.2-0.3,2.4-0.6,3.7-0.9c1.7-0.5,3.5-1,5.2-1.5
		c2.2-0.6,4.4-1.4,6.6-1.9c1.7-0.4,3.3-0.9,5-1.4c1.5-0.4,3.1-0.7,4.5-1.3c1-0.4,2-0.8,3-1c2.4-0.6,4.7-1.4,7.1-2.1
		c2.2-0.6,4.4-1.5,6.6-2.1c0.9-0.2,1.6-0.8,2.4-0.9c1.2-0.1,2.3-0.6,3.5-0.9c1.8-0.4,3.3-1.4,5.1-1.9c2.4-0.7,4.9-1.3,7.2-2.3
		c1.8-0.7,3.6-1.3,5.5-1.9c2.5-0.8,5-1.7,7.5-2.5c2.1-0.7,4.3-1.4,6.4-2.2c2.4-0.9,4.8-1.6,7.2-2.5c3.4-1.2,6.7-2.7,10.1-3.8
		c2.2-0.7,4.3-1.7,6.4-2.6c2.5-1,5.2-1.7,7.7-2.6c2.5-0.9,5-1.6,7.5-2.4c1.6-0.5,3.1-1.1,4.7-1.5c2.5-0.6,5-1.5,7.5-2.2
		c1.5-0.4,3-0.9,4.4-1.3c2.1-0.6,4.3-0.9,6.4-1.6c2.1-0.7,4.3-1.1,6.4-1.8c0.7-0.2,1.4-0.8,2-0.7c1.1,0.1,2.1-0.2,3.1-0.4
		c2.4-0.5,4.8-0.8,7.2-1.4c2.9-0.7,5.8-1.3,8.7-1.8c4.7-0.8,9.5-1.7,14.2-2.4c2.9-0.5,5.8-0.8,8.7-1.2c2.1-0.3,4.3-0.7,6.4-0.7
		c2.8,0,5.7-0.6,8.5-0.6c1.3,0,2.6-0.5,3.9-0.3c0.9,0.1,1.8,0.1,2.7,0c1.5,0,2.9-0.6,4.3-0.4c3.1,0.4,6.1,0.1,9.1,0.1
		c6,0.1,11.9,0.2,17.9,0.6c2.6,0.2,5.3,0.4,7.9,0.5c1.7,0.1,3.4,0.6,5.1,0.8c3.2,0.4,6.4,0.9,9.5,1.5c3,0.6,6,0.8,8.9,1.5
		c2.2,0.5,4.5,1,6.7,1.5c4,1.1,8,2.2,11.9,3.3C674.9,1203.1,674.9,1226.2,674.9,1249.3z"/>
	<path class="st2" d="M674.9,1179.9c-4-1.1-7.9-2.3-11.9-3.3c-2.2-0.6-4.5-1-6.7-1.5c-2.9-0.7-6-1-8.9-1.5c-3.2-0.6-6.3-1-9.5-1.5
		c-1.7-0.2-3.4-0.7-5.1-0.8c-2.6-0.1-5.3-0.3-7.9-0.5c-6-0.4-11.9-0.5-17.9-0.6c-3-0.1-6.1,0.2-9.1-0.1c-1.4-0.2-2.9,0.4-4.3,0.4
		c-0.9,0-1.8,0.1-2.7,0c-1.3-0.1-2.6,0.4-3.9,0.3c-2.8,0-5.6,0.5-8.5,0.6c-2.1,0-4.3,0.4-6.4,0.7c-2.9,0.4-5.8,0.7-8.7,1.2
		c-4.7,0.8-9.5,1.6-14.2,2.4c-2.9,0.5-5.8,1.1-8.7,1.8c-2.4,0.6-4.8,0.8-7.2,1.4c-1,0.2-2,0.5-3.1,0.4c-0.6-0.1-1.3,0.5-2,0.7
		c-2.1,0.7-4.3,1.1-6.4,1.8c-2.1,0.7-4.3,1-6.4,1.6c-1.5,0.4-2.9,0.9-4.4,1.3c-2.5,0.7-4.9,1.5-7.5,2.2c-1.6,0.4-3.1,1.1-4.7,1.5
		c-2.5,0.8-5,1.5-7.5,2.4c-2.6,0.9-5.2,1.6-7.7,2.6c-2.1,0.8-4.2,1.9-6.4,2.6c-3.4,1.1-6.7,2.5-10.1,3.8c-2.4,0.9-4.8,1.6-7.2,2.5
		c-2.1,0.8-4.3,1.5-6.4,2.2c-2.5,0.8-5,1.7-7.5,2.5c-1.8,0.6-3.7,1.1-5.5,1.9c-2.3,1-4.8,1.6-7.2,2.3c-1.8,0.5-3.3,1.4-5.1,1.9
		c-1.2,0.3-2.3,0.8-3.5,0.9c-0.9,0.1-1.5,0.7-2.4,0.9c-2.3,0.5-4.4,1.4-6.6,2.1c-2.4,0.7-4.7,1.5-7.1,2.1c-1,0.2-2,0.6-3,1
		c-1.4,0.6-3,0.9-4.5,1.3c-1.7,0.4-3.3,1-5,1.4c-2.2,0.5-4.4,1.3-6.6,1.9c-1.7,0.5-3.5,1-5.2,1.5c-1.2,0.3-2.4,0.7-3.7,0.9
		c-1.8,0.4-3.4,1.1-5.2,1.5c-2.8,0.6-5.6,1.4-8.4,2.1c-2.1,0.6-4.3,1-6.5,1.6c-2,0.5-4.1,1-6.2,1.4c-1.4,0.3-2.7,0.8-4.1,1.2
		c-1.6,0.5-3.2,0.8-4.9,1.1c-1.4,0.2-2.7,0.6-4,0.9c-2.6,0.6-5.1,1.2-7.7,1.7c-2.5,0.5-5.1,1-7.6,1.5c-3.1,0.6-6.1,1.3-9.1,1.8
		c-2.4,0.4-4.7,0.7-7.1,1.3c-2.2,0.5-4.5,0.7-6.7,1.1c-1.8,0.3-3.5,0.7-5.3,0.9c-1.9,0.2-3.8,0.6-5.7,0.8c-1.1,0.1-2.4,0.2-3.6,0.6
		c-0.7,0.3-1.7,0.3-2.5,0.4c-2.6,0.2-5.2,0.8-7.9,1c-3.6,0.3-7.1,1-10.6,1.2c-2.7,0.2-5.5,0.7-8.2,0.9c-0.5,0-1.2,0.4-1.6-0.3
		c0.3,0,0.6-0.1,0.9-0.1c0.4,0.1,0.7,0.2,1-0.1c0.1,0,0.3-0.1,0.4-0.1c0.6,0.1,1.2,0.1,1.8,0c0.3-0.1,0.6-0.1,0.9-0.2
		c0.3,0,0.5,0,0.8,0c0.3-0.1,0.6-0.2,0.9-0.3c0.2,0,0.3,0,0.5,0.1c0.2,0,0.4-0.1,0.7-0.1c0.2,0,0.4,0,0.6,0c0.3,0.1,0.6-0.1,0.9-0.2
		c0.2,0,0.4,0,0.6,0c0.2,0,0.4,0,0.6,0c0.3,0.1,0.5,0.1,0.8,0c0.2-0.1,0.5-0.1,0.7-0.2c0.3-0.1,0.7-0.2,1-0.2
		c0.7-0.1,1.5,0.2,2.1-0.3c0.2,0,0.4,0,0.5,0c0.4-0.1,0.8-0.1,1.2-0.2c1,0.4,2-0.1,2.9-0.3c0.4,0.3,0.8,0,1.1-0.2c0.3,0,0.5,0,0.8,0
		c0.8-0.2,1.6-0.1,2.4-0.5c0.2,0,0.3,0,0.5,0c0.2,0,0.4,0,0.7,0c0.3,0.1,0.5,0.1,0.7-0.1c0.8-0.4,1.6-0.3,2.4-0.4
		c0.8-0.1,1.6-0.1,2.4-0.2c0.2-0.1,0.3-0.2,0.5-0.3c0.3,0,0.5,0,0.8,0c0.2,0,0.4,0,0.6,0c0.3,0.1,0.7,0.2,1-0.1
		c1.3-0.7,2.7-0.4,4-0.7c1.9-0.4,3.8-1,5.7-1.1c1.8-0.1,3.6-0.6,5.4-0.8c1.8-0.2,3.6-0.7,5.4-1.1c1.8-0.3,3.7-0.6,5.5-0.9
		c1.6-0.3,3.1-0.7,4.7-1c0.2,0.1,0.4,0,0.5-0.1c1.4-0.3,2.9-0.3,4.3-0.8c0.2,0,0.3-0.1,0.5-0.1c1.5-0.3,3-0.6,4.4-0.9
		c1.2-0.2,2.4-0.4,3.5-0.6c1.6-0.3,3.2-0.7,4.7-1.2c0.6-0.2,1.3-0.2,2-0.4c1.7-0.4,3.4-0.7,5.2-1.1c0.2,0.1,0.3,0.1,0.5,0
		c3.4-0.9,6.8-1.8,10.1-2.7c2-0.5,3.9-1,5.9-1.5c0.2,0.2,0.3,0.2,0.5,0c1.7-0.5,3.3-1,5.1-1.2c0.8-0.1,1.7-0.4,2.5-0.8
		c1.3-0.6,2.7-0.7,4.1-1c1.2-0.3,2.5-0.3,3.6-1.1c0.7-0.5,1.7-0.5,2.5-0.6c1.8-0.3,3.5-0.9,5.3-1.5c1.2-0.4,2.6-0.4,3.8-0.9
		c0.2,0,0.3,0,0.5,0c2.2-0.7,4.3-1.5,6.5-2c2.9-0.6,5.6-1.8,8.4-2.6c2.2-0.6,4.3-1.4,6.5-1.8c0.6-0.1,1.1-0.3,1.7-0.6
		c0.2,0,0.3-0.1,0.5-0.1c1.3-0.4,2.7-0.8,4-1.3c0.2,0.2,0.3,0.2,0.5,0c1.8-0.6,3.5-1.2,5.3-1.8c0.2,0.1,0.4,0.1,0.5-0.1
		c2.6-0.9,5.3-1.8,7.9-2.7c0.2,0,0.3,0,0.5-0.1c0.6,0,1.1-0.3,1.6-0.6c0.2,0,0.4,0,0.5-0.2c0.8,0.1,1.4-0.7,2.1-0.7
		c0.2,0.2,0.3,0.2,0.5,0c0.4-0.2,0.8-0.4,1.2-0.5c0.3,0,0.5,0.1,0.7-0.1c2.6-1.1,5.3-1.8,7.9-2.8c0.3,0.1,0.5,0.1,0.7-0.2
		c1.8-1.1,3.9-1.4,5.8-2.2c1.7-0.7,3.4-1.2,5.2-1.7c1.1-0.3,2.2-0.7,3.3-1.2c0.9-0.5,2.1-0.6,3.1-0.9c0.3-0.1,0.6-0.1,0.8-0.2
		c2.3-1.3,4.8-1.8,7.2-2.8c2.6-1.2,5.4-2.1,8-3.2c1.8-0.8,3.6-1.8,5.6-1.9c0.8-0.1,1.5-0.4,2.2-0.7c1.8-0.8,3.8-0.9,5.6-1.7
		c1.8-0.8,3.8-1.1,5.6-1.9c1.4-0.7,3.1-0.8,4.7-1.2c0.5-0.1,0.9-0.4,1.4-0.6c0.2,0.1,0.4,0,0.5-0.2c1,0,1.7-0.7,2.7-0.8
		c1.5-0.3,2.9-0.8,4.4-1.2c2-0.5,3.9-1,5.9-1.6c0.2,0.1,0.4,0.1,0.5-0.1c2.7-0.8,5.4-1.8,8.2-2.2c4.9-0.8,9.7-2.1,14.6-2.9
		c3.9-0.7,7.8-1.8,11.7-2.2c2.7-0.3,5.3-1,8.1-1.1c0.4,0,0.8-0.2,1.1-0.3c0.2,0,0.3,0,0.5,0c3.3-0.4,6.5-0.8,9.8-1.3
		c0.3,0.1,0.5,0.1,0.7-0.1c1.5-0.1,3-0.2,4.5-0.4c0.2,0,0.3,0,0.5,0.1c0.8,0,1.6,0.1,2.4-0.2c0.2,0.2,0.3,0.2,0.5,0
		c1.1-0.5,2.3-0.2,3.5-0.4c2.5-0.4,5.1,0.1,7.6-0.5c0.8-0.2,1.6-0.2,2.4-0.1c1.7,0.3,3.3,0,5,0c0.2,0,0.3,0.1,0.5,0.1
		c3.6-0.3,7.2,0,10.7,0.1c4,0.1,8,0.1,12,0.6c0.2,0,0.3,0,0.5,0.1c0.6,0,1.3,0,1.9-0.1c0.2,0,0.3,0,0.5,0c1.5,0.3,2.9,0.5,4.5,0.3
		c0.5-0.1,0.9,0,1.3,0.4c0.1,0.2,0.4,0.3,0.6,0.3c3.6,0,7.1,1,10.7,1.3c2.3,0.2,4.6,0.8,6.9,1.2c0.2,0,0.3,0,0.5,0
		c3.8,0.4,7.4,1.5,11,2.5c3.5,0.9,7.1,1.7,10.4,3.1c0.1,0,0.2,0,0.4,0C674.9,1179.6,674.9,1179.8,674.9,1179.9z"/>
	<path class="st2" d="M-151.1,1043.2c-0.5,1-1.5,0.6-2.3,0.8c-1.5,0.4-3,0.9-4.5,1.2c-2.4,0.5-4.7,1.4-7.1,2.1c0-0.2,0-0.3,0-0.5
		c0.2-0.1,0.3-0.2,0.5-0.2c0.2-0.1,0.5-0.2,0.7-0.3c0.2,0,0.4,0,0.5-0.2c0.7,0.1,1.3-0.3,1.9-0.5c0.2,0,0.4,0,0.6,0
		c0.4,0,0.8-0.3,1.1-0.5c0.3,0,0.5,0.1,0.7-0.1c0.4,0.1,0.8-0.2,1.2-0.4c0.3,0.1,0.5,0.1,0.8,0c0.4-0.1,0.8-0.3,1.2-0.4
		c0.2,0.1,0.4,0.1,0.5-0.1c0.4,0,0.8-0.1,1.2-0.4c0.2,0,0.4,0,0.6,0c0.6,0.2,0.9-0.3,1.3-0.5c0.2,0,0.4,0,0.6,0
		C-151.6,1043.1-151.3,1043.2-151.1,1043.2z"/>
	<path class="st3" d="M-164.5,1046.5c-0.2,0.1-0.3,0.2-0.5,0.2c0-0.2,0-0.3,0-0.5C-164.8,1046.3-164.7,1046.3-164.5,1046.5z"/>
	<path class="st2" d="M97.3,1198.2c-0.9-0.3-1.1-1.2-1.4-1.8c-1.7-3.5-3.3-7.1-4.8-10.8c-1.1-2.7-2.1-5.5-3-8.4
		c-0.8-2.4-1.2-4.9-1.9-7.4c-0.8-2.9-0.9-5.9-1.6-8.9c-0.4-1.6-0.3-3.4-0.4-5.1c-0.1-2.6-0.5-5.3-0.7-7.9c-0.1-2.2-0.6-4.3-0.9-6.4
		c-0.3-1.9-0.6-3.9-1.1-5.8c-0.3-1.2-0.3-2.5-0.6-3.8c-0.7-2.5-1-5.1-1.6-7.7c-0.9-3.3-1.9-6.7-2.8-10c-0.6-2-1.5-4-2.3-6
		c-1.2-3-2.4-6-3.8-8.9c-1.1-2.2-2.2-4.4-3.3-6.5c-1.4-2.7-2.9-5.4-4.7-7.9c-1.2-1.8-2.5-3.5-3.8-5.2c-1.5-1.9-3.1-3.7-4.6-5.6
		c-0.2-0.2-0.3-0.3-0.2-0.6c0.8,0.5,1.4,1.3,2,1.9c0.6,0.6,0.9,1.7,1.9,1.9c0,0,0,0,0,0c0.2,1,0.9,1.6,1.7,2.2c0,0,0,0,0,0
		c0.9,1.6,1.8,3.1,3,4.4c0,0.1,0.1,0.1,0.1,0.2c0,0.3,0.1,0.5,0.4,0.5c0.2,0.5,0.4,0.9,0.8,1.2c0,0.3,0.2,0.4,0.4,0.5
		c0.2,0.4,0.4,0.7,0.6,1.1c0.4,1,1,1.8,1.6,2.7c0.1,0.2,0.2,0.5,0.3,0.7c0,0.3,0.1,0.5,0.4,0.5c0,0.1,0,0.1,0.1,0.2
		c0.2,0.7,0.5,1.3,1.1,1.8c0.2,0.8,0.6,1.5,1.1,2.1c0.3,0.8,0.5,1.6,1.1,2.2c0.2,0.5,0.4,0.9,0.6,1.4c0.1,0.6,0.3,1.1,0.8,1.5
		c0.1,0.2,0.1,0.4,0.2,0.6c0.3,1,0.7,1.9,1.3,2.7c0.1,0.2,0.2,0.4,0.3,0.7c0,0.9,0.1,1.7,0.7,2.4c0,0.1,0,0.3,0.1,0.4
		c-0.1,0.5,0.2,0.8,0.6,1c0.1,0.3,0.2,0.6,0.3,0.9c0.1,0.5,0,1.2,0.5,1.6c0.1,0.3,0.3,0.6,0.4,0.9c0,0.4-0.1,0.7,0.2,1
		c0.2,0.3,0.3,0.6,0.5,0.9c0,1.2,0.6,2.3,0.9,3.4c0,0.1,0,0.3,0.1,0.4c0.3,1.4,0.7,2.8,1.4,4.1c0.1,0.5,0.2,0.9,0.3,1.4
		c0.3,1.1,0.2,2.2,0.8,3.2c0,0.1,0.1,0.3,0.1,0.4c0,0.3,0,0.6,0.3,0.7c0,0.4,0,0.8,0,1.2c0,1.4,0.4,2.6,0.9,3.9
		c0,0.3,0.1,0.6,0.1,0.9c-0.2,0.9,0.2,1.7,0.5,2.5c0.2,1.2,0.3,2.3,0.5,3.5c0.5,2.9,0.9,5.8,1.4,8.7c0,0.5,0,0.9,0.1,1.4
		c-0.1,0.2,0,0.4,0.2,0.5c0,0.2,0,0.3,0,0.5c-0.3,0.5,0,1,0.3,1.4c0,0.7,0,1.4,0.1,2.1c0,1.7,0.1,3.4,0.5,5.1c0,0.4,0,0.8,0,1.1
		c-0.1,0.7,0.2,1.3,0.3,1.9c0,0.1,0,0.2,0.1,0.3c0,0.3,0.1,0.6,0.1,1c0,0.1,0,0.2,0,0.4c-0.2,1.6,0.5,3,0.7,4.6
		c0.2,1.1,0.1,2.2,0.9,3.2c0,0.1,0,0.3,0.1,0.4c-0.2,0.9,0.2,1.7,0.6,2.5c0,0.5,0.1,1,0.3,1.4c0,0.3-0.1,0.6,0.2,0.7
		c0.1,0.3,0.2,0.6,0.3,0.9c0,0.5,0.1,0.9,0.4,1.2c0.1,0.3,0.2,0.6,0.3,0.9c0,0.5,0.1,0.9,0.4,1.2c0.1,0.2,0.2,0.5,0.2,0.7
		c0.3,0.7,0.1,1.7,0.9,2.2c0.2,0.5,0.6,0.8,0.6,1.3c-0.1,0.3,0,0.5,0.2,0.6c0.1,0.4,0.3,0.7,0.4,1.1c0,0.7,0.2,1.3,0.8,1.8
		c0.1,0.2,0.1,0.4,0.2,0.6c0.1,0.7,0.2,1.3,0.8,1.8c0,0.1,0.1,0.3,0.1,0.4c0.1,0.6,0.3,1.2,0.9,1.5c0,0.1,0,0.1,0.1,0.2
		c0.1,0.5,0.2,0.9,0.6,1.3c0.1,0.3,0.3,0.6,0.4,0.9c0.2,0.9,0.6,1.7,1.2,2.4C97.3,1197.9,97.3,1198,97.3,1198.2z"/>
	<path class="st2" d="M248.7,1250.6c-1.9,0.6-3.8,0.4-5.7,0.5c-4.9,0.4-9.9,0.4-14.8,0.4c-3.4,0-6.7-0.1-10.1-0.2
		c-2.6,0-5.3-0.1-7.9-0.1c-0.3,0-0.6,0-0.6-0.3c0.6-0.5,1.3,0.1,1.9-0.1c0.3,0,0.5,0,0.8,0c0.2,0,0.4,0,0.6,0c0.2,0,0.4,0,0.6,0
		c0.2,0,0.4,0,0.6,0c0.2,0,0.4,0,0.6,0.1c0.2,0,0.4,0,0.6-0.1c0.2,0,0.4,0,0.6,0c0.3,0,0.6,0,0.9,0c0.5,0.5,1-0.1,1.5,0
		c0.8,0,1.6,0,2.4,0c0.2,0.2,0.3,0.2,0.5,0c0.4,0,0.8,0,1.2,0c0.2,0.2,0.3,0.2,0.5,0.1c1.8-0.4,3.6,0.1,5.4,0c0.2,0,0.4,0,0.6,0
		c0.2,0,0.4,0,0.6,0c0.3,0,0.5,0,0.8,0c0.1,0,0.3,0,0.4,0c0.2,0,0.4,0,0.6,0c0.3,0.2,0.6,0.1,0.9,0c0.2,0,0.4,0,0.6,0
		c0.2,0,0.4,0,0.6,0c0.7,0.3,1.3-0.1,2-0.2c0.1,0,0.3,0,0.4,0c0.4,0,0.7,0,1,0c0.3,0,0.6,0,0.9,0c0.2,0.2,0.3,0.2,0.5,0
		c0.2,0,0.5,0,0.7,0c0.4,0.4,0.8-0.2,1.2-0.1c0.7-0.1,1.4-0.2,2.1-0.3c0.2,0,0.4,0,0.6,0c0.2,0,0.4,0,0.6,0c0.4,0,0.7,0,1.1,0
		c0.1,0,0.3,0,0.4-0.1c0.3,0.1,0.5,0.1,0.8,0c0.2,0,0.5-0.1,0.7-0.1c0.2,0,0.4,0,0.5,0c0.6-0.1,1.2-0.2,1.9-0.1
		C248.7,1250.4,248.7,1250.5,248.7,1250.6z"/>
	<path class="st2" d="M-21,1035.6c-0.1,0.3-0.3,0.3-0.6,0.2c-1.3-0.6-2.8-0.5-4.2-0.8c-2-0.4-4-0.7-6.1-0.9c-3.8-0.3-7.6-0.9-11.4-1
		c-1.4,0-2.8-0.4-4.3-0.5c-1.5-0.1-3-0.1-4.5-0.1c-0.3,0-0.6,0.1-0.8-0.3c0.3,0,0.6-0.1,0.9-0.1c0.2,0,0.4,0,0.6,0.1
		c0.2,0,0.4,0,0.6,0c0.2,0,0.4,0,0.6,0c0.1,0,0.2,0,0.4,0c0.3,0.1,0.7,0.1,1,0c0.8-0.2,1.6,0.2,2.4,0.2c0.2,0.2,0.5,0.1,0.7,0.1
		c1.3-0.1,2.7,0.4,4,0.2c0.2,0,0.4,0,0.5,0.1c0.2,0,0.5,0,0.7,0c0.1,0.2,0.3,0.2,0.5,0.2c0.4,0.1,0.8,0.1,1.2,0.2
		c0.6,0.2,1.3,0.1,2,0.1c0.1,0,0.3,0,0.4,0c0.5,0.2,1,0.4,1.5,0.3c0.6,0,1.1,0.1,1.7,0.1c0.2,0.2,0.5,0.2,0.8,0.1
		c0.2,0,0.4,0,0.7,0.1c0.1,0.2,0.3,0.3,0.5,0.2c0.5,0.2,1.1,0.2,1.6,0.1c1.6,0.7,3.4,0.7,5.1,0.9c0.8,0.1,1.6,0.2,2.4,0.3
		c0.1,0.2,0.3,0.2,0.5,0.2C-21.3,1035.3-21.2,1035.5-21,1035.6z"/>
	<path class="st2" d="M-64.9,1032c-0.4,0.7-1.1,0.3-1.6,0.3c-4.6,0.2-9.1,0.5-13.7,0.5c-3.5,0-7,0.4-10.5,0.7
		c-0.4,0-0.7,0.1-0.9-0.3c0.1-0.1,0.2-0.1,0.4-0.2c0.4-0.1,0.8-0.1,1.2-0.2c0.3,0.4,0.6,0.3,0.8-0.1c0.3,0,0.6-0.1,0.9-0.1
		c0.4,0.4,0.8-0.1,1.2-0.1c0.2,0,0.4,0,0.6,0c0.2,0,0.4,0,0.6,0c0.3,0.1,0.6,0,0.9-0.1c0.3,0.1,0.5,0.2,0.8,0
		c0.6-0.3,1.3-0.4,1.9-0.3c0.2,0.2,0.5,0.2,0.8,0.1c0.1,0,0.2,0,0.4,0c0.2,0,0.4,0,0.6,0c0.2,0,0.4,0,0.6,0c0.3,0,0.5,0,0.8,0
		c1.6-0.4,3.2-0.2,4.8-0.2c0.5,0.4,1-0.1,1.5,0c0.2,0,0.4,0,0.6,0c0.2,0,0.4,0,0.6,0c0.2,0,0.4,0,0.6,0c0.3,0.1,0.5,0.2,0.8,0
		c0.4-0.1,0.8-0.2,1.2-0.1c0.4,0.3,0.8-0.2,1.2-0.1c0.2,0,0.4,0,0.6,0c0.2,0,0.4,0,0.6,0c0.2,0,0.4,0,0.6,0c0.3,0,0.5,0,0.8,0
		C-65.2,1031.9-65.1,1031.9-64.9,1032z"/>
	<path class="st2" d="M109.5,1214.7c-2.2-1.4-3.7-3.5-5.1-5.6c-1.4-2-2.9-4-4.4-6.1c-1-1.5-2.1-2.9-2.6-4.7c0.9,0.3,1,1.3,1.5,2
		c0,0.4,0.3,0.6,0.7,0.8c0,0.1,0,0.1,0.1,0.2c0.1,0.6,0.3,1.1,0.7,1.4c0.1,0.4,0.4,0.7,0.7,1c0,0.3,0.1,0.4,0.4,0.5
		c1.2,2.2,3,4,4.4,6c1,1.4,2.1,2.6,3.3,3.8C109.4,1214.2,109.6,1214.4,109.5,1214.7z"/>
	<path class="st2" d="M-98.1,1033.9c-2.1,0.6-4.3,0.5-6.4,0.9c-3.2,0.6-6.4,0.5-9.6,1.3c-1.4,0.4-2.9,0.5-4.4,0.6
		c0,0-0.1-0.1-0.1-0.1c0.1-0.1,0.2-0.2,0.3-0.4c0.1,0,0.3-0.1,0.4-0.1c0.4,0.1,0.9,0.2,1.3-0.1c0.1,0,0.3-0.1,0.4-0.1
		c0.3,0.1,0.6,0.1,0.8-0.2c0.9,0.1,1.8-0.2,2.6-0.5c1.1,0.3,2.1-0.2,3.2-0.3c0.7-0.1,1.4-0.2,2.1-0.2c0.2,0,0.3,0,0.5,0
		c0.4,0,0.8-0.1,1.2-0.1c0.3,0.4,0.5,0.1,0.8-0.1c0.3,0,0.6-0.1,0.9-0.1c0.1,0.2,0.3,0.2,0.5,0c0.1,0,0.3-0.1,0.4-0.1
		c0.4,0.1,0.7,0.2,1-0.1c0.1,0,0.3-0.1,0.4-0.1c0.3,0.1,0.5,0.1,0.8-0.1c0.7-0.2,1.5,0.1,2.1-0.3
		C-98.5,1033.6-98.2,1033.5-98.1,1033.9z"/>
	<path class="st2" d="M171.9,1246.7c-3.8-0.6-7.5-1.6-11.2-2.6c-2.8-0.8-5.6-1.7-8.4-2.6c-0.2-0.1-0.4-0.1-0.4-0.4
		c0.5-0.2,1,0.1,1.4,0.2c0.1,0.2,0.3,0.2,0.5,0.1c0.2,0.1,0.4,0.1,0.6,0.2c0.2,0.3,0.4,0.5,0.8,0.4c1,0.5,2.1,0.7,3.2,0.9
		c0.1,0.2,0.3,0.3,0.6,0.2c0.7,0.2,1.4,0.4,2.1,0.6c0.1,0.2,0.3,0.2,0.5,0.2c2.3,0.5,4.5,1.4,6.9,1.6c0.2,0.1,0.3,0.1,0.5,0.2
		c0.2,0.1,0.5,0.2,0.7,0.3c0.4,0.3,0.8,0.2,1.2,0.2c0.1,0,0.3,0.1,0.4,0.1C171.7,1246.3,171.8,1246.5,171.9,1246.7z"/>
	<path class="st2" d="M-135.9,1039.9c-1.2,0.6-2.6,0.7-3.9,0.9c-2.6,0.6-5.2,1.1-7.8,1.6c-1.1,0.2-2.1,0.9-3.3,0.6
		c0-0.2,0.1-0.3,0.3-0.4c0.2,0,0.4,0,0.6,0c0.6,0.1,1-0.5,1.6-0.5c0.3,0.1,0.6,0.1,0.8-0.2c0.3-0.1,0.6-0.2,0.9-0.3
		c0.3,0,0.7,0.1,1-0.2c0.1,0,0.3-0.1,0.4-0.1c0.4,0,0.7,0.2,1-0.2c0.3-0.1,0.6-0.2,0.9-0.3c0.9,0.1,1.7,0,2.5-0.5
		c0.7-0.3,1.6,0,2.3-0.4c0.9,0.2,1.7-0.3,2.6-0.3C-136,1039.8-136,1039.9-135.9,1039.9z"/>
	<path class="st2" d="M51.9,1071.5c-1.3-0.8-2.2-1.9-3.3-2.9c-2.1-1.8-4.1-3.7-6.3-5.4c-0.2-0.2-0.5-0.3-0.3-0.7
		c0.3,0.1,0.5,0.2,0.8,0.3c0.1,0.2,0.3,0.3,0.5,0.2c0.5,0.5,1,0.9,1.5,1.4c0.4,0.7,1.1,1.1,1.9,1.5c0.5,0.5,1,1.1,1.7,1.5
		c0.5,0.6,1.1,1.2,1.8,1.6C50.6,1069.9,51.6,1070.4,51.9,1071.5z"/>
	<path class="st2" d="M-6.2,1038.9c-3.3-0.8-6.7-1.5-10-2.4c-0.4-0.1-1.1,0.2-1.3-0.5c0.7-0.2,1.3,0,2,0.2c0.2,0.3,0.5,0.2,0.8,0.2
		c0.2,0,0.5,0.1,0.7,0.1c0.2,0.1,0.3,0.1,0.5,0.2c0.2,0.2,0.4,0.2,0.6,0.1c0.4,0.2,0.8,0.4,1.3,0.3c1.7,0.4,3.3,0.8,5,1.3
		C-6.5,1038.5-6.3,1038.7-6.2,1038.9z"/>
	<path class="st2" d="M4.7,1042.1c0,0.2-0.2,0.3-0.4,0.2c-2.3-0.8-4.6-1.5-6.9-2.3c-0.7-0.2-1.4-0.4-2-0.6c-0.3-0.1-0.7-0.1-0.8-0.5
		c0.2,0,0.5,0,0.7,0c0.1,0.2,0.3,0.2,0.5,0.1c0.5,0.3,1,0.3,1.6,0.4c0.5,0.5,1.2,0.4,1.7,0.6c0.6-0.1,0.9,0.4,1.4,0.5
		c0.1,0.2,0.3,0.2,0.5,0.2c0.6,0.2,1.2,0.4,1.9,0.6c0.2,0.3,0.5,0.2,0.7,0.2C4,1041.8,4.5,1041.7,4.7,1042.1z"/>
	<path class="st2" d="M-53.4,1032.2c-2,0.5-4,0-6.1,0.1c-1.4,0-2.9,0-4.4,0c-0.3,0-0.6,0-0.7-0.3c0.1-0.1,0.2-0.1,0.4-0.2
		c0.3,0,0.6,0,0.9,0c0.1,0.2,0.3,0.3,0.5,0.1c0.5,0,1.1-0.1,1.6-0.1c0.2,0,0.4,0,0.6,0c0.2,0,0.4,0,0.6,0c0.2,0,0.4,0,0.6,0.1
		c0.2,0,0.4,0,0.6,0c0.2,0,0.4,0,0.6,0.1c1.3,0,2.7,0,4,0C-53.9,1031.9-53.6,1031.8-53.4,1032.2z"/>
	<path class="st2" d="M209.2,1251.1c-1,0.6-2.1,0.3-3.1,0.2c-2.1-0.2-4.2-0.5-6.4-0.4c-0.2,0-0.3-0.2-0.5-0.3
		c0.1-0.1,0.2-0.2,0.3-0.2c0.4,0,0.8,0,1.2-0.1c0.4,0.4,0.8,0.2,1.2,0.2c0.2,0,0.4,0,0.6,0c0.2,0,0.4,0,0.6,0c0.4,0,0.8,0.1,1.2,0.1
		c0.3,0.3,0.6,0.2,1,0.2c0.7,0,1.4,0,2.1,0c0.2,0.3,0.5,0.3,0.8,0.1C208.5,1250.9,208.9,1251,209.2,1251.1z"/>
	<path class="st2" d="M-127.8,1038.2c-0.8,0.6-1.8,0.5-2.7,0.6c-1.8,0.4-3.6,1-5.5,1.1c0-0.1-0.1-0.1-0.1-0.2
		c0.2-0.1,0.4-0.3,0.5-0.4c0.6,0,1.1,0,1.6-0.3c0.4,0,0.9,0.2,1.2-0.2c1.4-0.3,2.7-0.6,4.1-1C-128.3,1038-128,1038.1-127.8,1038.2z"
		/>
	<path class="st2" d="M189,1249.6c-2.7-0.1-5.3-0.4-7.9-1c-0.2-0.1-0.4-0.2-0.6-0.4c0.1-0.1,0.3-0.1,0.4-0.2c0.2,0,0.4,0.1,0.7,0.1
		c0.1,0.2,0.3,0.2,0.5,0.2c0.3,0.3,0.7,0.3,1.2,0.3c0.1,0.2,0.3,0.2,0.5,0.2c0.1,0,0.3,0,0.4-0.1c0.2,0,0.4,0,0.6,0
		c1.4,0.2,2.8,0.4,4.3,0.6C189,1249.4,189,1249.5,189,1249.6z"/>
	<path class="st2" d="M145,1238.6c-2.7-0.8-5-2.2-7.5-3.2c-0.2-0.1-0.3-0.2-0.3-0.5c0.1,0,0.3,0,0.4,0c0.3,0.3,0.8,0.4,1.2,0.5
		c0.6,0.3,1.2,0.6,1.9,0.8c0.1,0.3,0.3,0.4,0.6,0.3c0.4,0.2,0.8,0.4,1.2,0.6c0.1,0.2,0.3,0.2,0.5,0.2c0.2,0.1,0.4,0.2,0.7,0.4
		c0.3,0.3,0.6,0.4,1,0.3c0.1,0,0.1,0.1,0.2,0.1c0.1,0.1,0.2,0.3,0.3,0.4C145.1,1238.5,145,1238.5,145,1238.6z"/>
	<path class="st3" d="M84.1,1148c-0.5-2.9-0.9-5.8-1.4-8.7c0.4,0.1,0.5,0.5,0.6,0.9c0.5,2.2,0.5,4.5,1.1,6.6
		C84.6,1147.4,84.4,1147.7,84.1,1148z"/>
	<path class="st2" d="M256.9,1249.8c-0.6,0.7-1.5,0.5-2.3,0.5c-1.6,0-3.2,0.4-4.8,0.5c-0.3,0-0.5,0.1-0.6-0.2c0-0.1,0-0.2,0-0.3
		c0.5,0.3,0.9-0.1,1.4-0.1c0.2,0.2,0.3,0.2,0.5,0c0.2-0.1,0.5-0.2,0.7-0.3c0.2,0,0.4,0,0.5,0c0.2,0,0.4,0,0.7,0c0.2,0,0.4,0,0.5,0
		c0.2,0,0.4,0,0.7,0c0.2,0,0.4,0,0.6,0c0.3,0.1,0.6-0.1,0.9-0.2c0.2,0,0.4,0,0.6,0C256.4,1249.7,256.7,1249.8,256.9,1249.8z"/>
	<path class="st3" d="M87.2,1171.6c-0.7-0.9-0.7-2.1-0.9-3.2c-0.3-1.5-1-3-0.7-4.6c0.9,1.7,1.1,3.5,1.2,5.3
		C86.9,1169.9,87.8,1170.6,87.2,1171.6z"/>
	<path class="st2" d="M178.9,1247.9c-2.2-0.1-4.4-0.5-6.5-1.2c0-0.1,0-0.2,0-0.3c0.7,0.1,1.4,0.3,2.1,0.4c0.5,0.1,1,0.4,1.5,0.3
		c0.4,0,0.8,0.1,1.2,0.1c0.2,0,0.3,0.1,0.5,0.1c0.4,0.1,0.7,0.1,1.1,0.2C178.8,1247.7,178.9,1247.8,178.9,1247.9z"/>
	<path class="st2" d="M16.2,1046.5c-0.3,0.2-0.6,0.2-0.9,0c-1.8-0.9-3.6-1.7-5.5-2.2c-0.2-0.1-0.5-0.2-0.4-0.5c0.2,0,0.5,0,0.7,0
		c0.1,0.2,0.3,0.2,0.5,0.2c0.6,0.3,1.4,0.3,1.9,0.8c0.2,0.3,0.5,0.2,0.7,0.2c0.3,0.2,0.6,0.3,0.9,0.5c0.2,0.3,0.5,0.2,0.8,0.2
		C15.4,1046,15.8,1046.3,16.2,1046.5z"/>
	<path class="st3" d="M57.7,1077.5c-1-0.2-1.3-1.3-1.9-1.9c-0.7-0.7-1.2-1.5-2-1.9c-0.2-0.1-0.4-0.3-0.4-0.5c0.2-0.6,0.5-0.2,0.6,0
		C55.4,1074.4,56.8,1075.7,57.7,1077.5z"/>
	<path class="st2" d="M27.8,1052.4c-1,0.3-1.7-0.5-2.3-0.9c-0.8-0.5-2-0.5-2.5-1.6c0.3,0.1,0.6,0.2,0.9,0.3c0.1,0.2,0.3,0.2,0.5,0.2
		c0.4,0.3,0.8,0.7,1.4,0.8c0.1,0.2,0.3,0.3,0.5,0.3c0.2,0.2,0.4,0.4,0.7,0.5c0.2,0.3,0.5,0.2,0.7,0.2
		C27.7,1052.2,27.7,1052.3,27.8,1052.4z"/>
	<path class="st2" d="M116.5,1221.2c-1.5-0.7-2.7-1.7-3.5-3.2c0.6,0,0.8,0.7,1.3,0.8c0.4,0.5,0.8,1.1,1.5,1.4
		C116.1,1220.5,116.5,1220.7,116.5,1221.2z"/>
	<path class="st2" d="M38.6,1059.8c-0.1,0-0.3,0.1-0.3,0c-1.3-0.8-2.6-1.5-3.6-2.7c0.8,0,1.4,0.5,1.9,1c0.4,0.3,0.7,0.8,1.2,0.9
		c0.1,0.2,0.3,0.2,0.5,0.2C38.4,1059.4,38.5,1059.6,38.6,1059.8z"/>
	<path class="st2" d="M124.4,1227.4c-1.8-0.6-3-1.9-4.3-3.1c0.1,0,0.3,0,0.4,0c0.2,0.3,0.6,0.4,0.9,0.5c0.3,0.3,0.7,0.6,1,0.9
		c0.3,0.5,0.7,0.7,1.2,0.7C123.9,1226.8,124.4,1227,124.4,1227.4z"/>
	<path class="st3" d="M62.4,1084c-1.3-1.3-2.2-2.8-3-4.4C60.9,1080.8,61.8,1082.3,62.4,1084z"/>
	<path class="st3" d="M85.1,1159.1c-0.4-1.7-0.5-3.4-0.5-5.1c0.8,0.4,0.3,1.1,0.5,1.7c0.4,1,0,2,0.3,3
		C85.5,1158.9,85.3,1159,85.1,1159.1z"/>
	<path class="st2" d="M32.1,1055.3c-0.4,0.1-0.8,0-1.1-0.3c-0.7-0.7-1.4-1.2-2.3-1.5c-0.2-0.1-0.3-0.3-0.3-0.5
		c0.3,0,0.6,0.1,0.9,0.1c0.1,0.2,0.3,0.3,0.6,0.3c0.2,0.2,0.5,0.4,0.7,0.5c0.2,0.4,0.5,0.7,1,0.7
		C31.9,1054.8,32.1,1054.9,32.1,1055.3z"/>
	<path class="st2" d="M9.3,1043.7c-1.6-0.1-3-0.7-4.2-1.6c0.8-0.1,1.4,0.2,2,0.6c0.2,0.3,0.5,0.2,0.7,0.2
		C8.1,1043.4,9,1043.1,9.3,1043.7z"/>
	<path class="st2" d="M-118.4,1036.8c-1.5,0.4-3,0.6-4.5,0.7c0,0-0.1-0.1-0.1-0.1c0-0.1,0.1-0.1,0.1-0.2c0.2-0.1,0.4-0.2,0.7-0.3
		c0.2,0,0.4,0,0.6,0c0.3-0.1,0.6-0.1,0.9-0.2c0.2,0,0.3,0,0.5,0c0.3-0.1,0.6-0.2,0.9-0.3c0.3,0.1,0.6,0.2,0.9,0.2
		C-118.5,1036.7-118.5,1036.7-118.4,1036.8z"/>
	<path class="st3" d="M-24.4,1034.7c-1.7-0.3-3.5-0.2-5.1-0.9c0.2-0.2,0.5-0.3,0.8-0.2c1.1,0.4,2.3,0.5,3.4,0.6
		C-24.9,1034.3-24.5,1034.3-24.4,1034.7z"/>
	<path class="st2" d="M198.6,1250.6c-1.6-0.2-3.1,0-4.7-0.5c0.1,0,0.2-0.1,0.4-0.1c0.1,0,0.3,0,0.4,0c0.2,0,0.4,0,0.6,0
		c0.2,0,0.4,0,0.6,0c0.2,0,0.4,0,0.6,0c0.4,0,0.8,0,1.2,0.1c0.2,0.3,0.5,0.2,0.8,0.2c0.1,0,0.1,0,0.2,0.1
		C198.6,1250.4,198.6,1250.5,198.6,1250.6z"/>
	<path class="st2" d="M112.9,1218c-1.2-0.7-2.4-1.5-3-2.8c0.2,0.1,0.4,0.2,0.6,0.3c0.6,0.5,1.1,0.9,1.7,1.4
		C112.4,1217.3,112.9,1217.5,112.9,1218z"/>
	<path class="st2" d="M-92.3,1033.4c-0.5,0.7-1.3,0.5-1.9,0.4c-0.7,0-1.5,0-2.2,0c0-0.3,0.3-0.4,0.5-0.5c0.3,0,0.5,0,0.8,0
		c0.5-0.1,1.1,0.2,1.6,0C-93.1,1033.3-92.7,1033.3-92.3,1033.4z"/>
	<path class="st3" d="M81.7,1132.4c-0.5-1.2-0.9-2.5-0.9-3.9C81.7,1129.7,81.7,1131.1,81.7,1132.4z"/>
	<path class="st3" d="M79.3,1121.6c-0.7-1.3-1.1-2.7-1.4-4.1C78.9,1118.7,79.2,1120.1,79.3,1121.6z"/>
	<path class="st2" d="M150.8,1240.6c-1.2-0.1-2.2-0.5-3.1-1.2c0.7-0.2,1.4,0.3,2.1,0.4c0.1,0.2,0.3,0.3,0.6,0.3
		C150.5,1240.3,150.6,1240.5,150.8,1240.6z"/>
	<path class="st3" d="M66.3,1090.2c-0.6-0.8-1.2-1.7-1.6-2.7C66,1088.3,66.6,1089.3,66.3,1090.2z"/>
	<path class="st2" d="M21.3,1049c-1.3,0-2.3-0.7-3.2-1.6c0.9,0.1,1.6,0.6,2.4,1c0.1,0.2,0.3,0.2,0.5,0.2
		C21.2,1048.7,21.3,1048.8,21.3,1049z"/>
	<path class="st2" d="M-17.9,1036c-0.7,0.3-1.8,0.1-2.6-0.5l-0.1-0.1c0,0,0-0.1,0-0.1c0.2,0.1,0.4,0.2,0.6,0.1
		C-19.3,1035.6-18.5,1035.3-17.9,1036z"/>
	<path class="st3" d="M77.9,1117.1c-0.3-1.1-0.9-2.2-0.9-3.4C77.7,1114.7,78,1115.8,77.9,1117.1z"/>
	<path class="st3" d="M80.4,1126.3c-0.5-1-0.5-2.2-0.8-3.2C80.6,1123.9,80.4,1125.1,80.4,1126.3z"/>
	<path class="st2" d="M133.3,1232.8c-1.1,0.1-1.9-0.5-2.6-1.3c0.2,0,0.4,0,0.7,0c0.1,0.2,0.3,0.2,0.5,0.2c0.4,0.4,0.8,0.8,1.4,0.7
		C133.3,1232.6,133.3,1232.7,133.3,1232.8z"/>
	<path class="st3" d="M82.3,1135.9c-0.3-0.8-0.6-1.6-0.5-2.5C82.3,1134.1,83.1,1134.8,82.3,1135.9z"/>
	<path class="st3" d="M97.3,1197.7c-0.6-0.7-1-1.5-1.2-2.4C96.8,1195.9,97.7,1196.5,97.3,1197.7z"/>
	<path class="st3" d="M-109.5,1034.9c-1.1,0.1-2.1,0.7-3.2,0.3C-111.7,1035-110.7,1034.3-109.5,1034.9z"/>
	<path class="st3" d="M-135.5,1039.3c-0.2,0.1-0.4,0.3-0.5,0.4c-0.9-0.1-1.7,0.5-2.6,0.2C-137.7,1039.3-136.6,1039.4-135.5,1039.3z"
		/>
	<path class="st2" d="M147.5,1239.3c-1,0.2-1.7-0.4-2.5-0.8c0,0,0.1-0.1,0.1-0.1c0.5,0.1,0.9,0.2,1.4,0.3
		C146.9,1238.9,147.4,1238.7,147.5,1239.3z"/>
	<path class="st2" d="M192.5,1249.9c-1,0.2-2,0.2-2.9-0.3c0.8-0.3,1.6,0.1,2.4-0.1C192.2,1249.6,192.4,1249.7,192.5,1249.9z"/>
	<path class="st2" d="M41.7,1062.3c-0.9-0.3-1.7-0.7-2.2-1.6c0.2,0,0.3,0,0.5,0c0.3,0.3,0.7,0.6,1.2,0.7
		C41.2,1061.7,41.7,1061.8,41.7,1062.3z"/>
	<path class="st3" d="M73.2,1103.9c-0.6-0.8-1-1.7-1.3-2.7C72.9,1101.9,73,1102.9,73.2,1103.9z"/>
	<path class="st3" d="M277.1,1247.5c-1,0.2-1.9,0.7-2.9,0.3c0.8-0.3,1.6-0.4,2.4-0.6C276.8,1247.2,277,1247.3,277.1,1247.5z"/>
	<path class="st3" d="M59.4,1079.6c-0.7-0.6-1.5-1.1-1.7-2.2C58.4,1078.1,59.2,1078.6,59.4,1079.6z"/>
	<path class="st3" d="M87.9,1174.4c-0.4-0.8-0.8-1.5-0.6-2.5C87.7,1172.7,88.2,1173.5,87.9,1174.4z"/>
	<path class="st3" d="M74.3,1107c-0.6-0.7-0.7-1.5-0.7-2.4C74.2,1105.3,74.1,1106.2,74.3,1107z"/>
	<path class="st3" d="M288.1,1246.2c-0.8,0.1-1.6,0.1-2.4,0.2C286.4,1245.8,287.2,1245.6,288.1,1246.2z"/>
	<path class="st3" d="M-141,1040.4c-0.8,0.5-1.6,0.6-2.5,0.5C-142.7,1040.3-141.8,1040.4-141,1040.4z"/>
	<path class="st3" d="M50,1069.1c-0.7-0.4-1.2-1-1.8-1.6C49.4,1067.5,49.8,1068.1,50,1069.1z"/>
	<path class="st3" d="M46.6,1066c-0.7-0.4-1.4-0.8-1.9-1.5C45.6,1064.8,46.4,1065,46.6,1066z"/>
	<path class="st2" d="M128.5,1230.1c-0.7-0.3-1.5-0.4-1.9-1.2c0.1,0,0.3,0,0.4,0c0.2,0.3,0.5,0.2,0.7,0.2
		C127.9,1229.5,128.5,1229.6,128.5,1230.1z"/>
	<path class="st2" d="M34.5,1057c-0.7-0.1-1.4-0.3-1.7-1.1c0,0-0.1-0.1-0.1-0.1c0,0,0-0.1,0-0.1c0.4,0.4,0.9,0.6,1.4,0.7
		C34.3,1056.6,34.5,1056.7,34.5,1057z"/>
	<path class="st3" d="M70.3,1097.7c-0.7-0.6-0.8-1.4-1.1-2.2C70.2,1095.9,70.2,1096.8,70.3,1097.7z"/>
	<path class="st2" d="M126.3,1228.6c-0.8-0.1-1.6-0.2-1.9-1.2c0.5-0.1,0.7,0.5,1.2,0.5c0.1,0.2,0.3,0.3,0.5,0.2
		C126.2,1228.3,126.3,1228.5,126.3,1228.6z"/>
	<path class="st3" d="M91,1183.8c-0.8-0.6-0.6-1.5-0.9-2.2C91.1,1182.1,90.7,1183.1,91,1183.8z"/>
	<path class="st2" d="M137.1,1234.9c-0.7-0.1-1.4,0-1.7-0.9c0.3,0.1,0.6,0.1,0.9,0.2c0.1,0.2,0.3,0.3,0.6,0.3
		C137,1234.5,137.1,1234.7,137.1,1234.9z"/>
	<path class="st3" d="M-92.3,1033.4c-0.4,0-0.9-0.1-1.3-0.1c0.7-0.5,1.4-0.8,2.3-0.2c-0.1,0.1-0.2,0.1-0.4,0.2
		C-91.9,1033.2-92.1,1033.3-92.3,1033.4z"/>
	<path class="st3" d="M112.2,1216.9c-0.6-0.5-1.1-0.9-1.7-1.4C111.5,1215.4,112,1215.9,112.2,1216.9z"/>
	<path class="st3" d="M85.4,1162.2c-0.1-0.6-0.4-1.3-0.3-1.9C85.7,1160.8,86.1,1161.4,85.4,1162.2z"/>
	<path class="st2" d="M119.2,1223.4c-0.8,0.1-1.2-0.3-1.6-1c0.5-0.2,0.8,0.5,1.3,0.4C119.1,1223,119.3,1223.2,119.2,1223.4z"/>
	<path class="st3" d="M68.1,1093.4c-0.5-0.5-0.8-1.1-1.1-1.8C67.8,1092,68.3,1092.5,68.1,1093.4z"/>
	<path class="st3" d="M93,1188.7c-0.5-0.5-0.8-1.1-0.8-1.8C93,1187.3,93.1,1187.9,93,1188.7z"/>
	<path class="st3" d="M235.3,1250.9c-0.7,0.1-1.3,0.4-2,0.2C233.9,1250.7,234.6,1250.5,235.3,1250.9z"/>
	<path class="st3" d="M-36.6,1033c-0.7,0-1.3,0.2-2-0.1C-37.9,1032.6-37.2,1032.4-36.6,1033z"/>
	<path class="st3" d="M115.8,1220.2c-0.7-0.3-1.1-0.8-1.5-1.4C115.2,1218.8,115.6,1219.4,115.8,1220.2z"/>
	<path class="st3" d="M94,1191.1c-0.6-0.4-0.7-1.1-0.8-1.8C93.9,1189.7,94,1190.3,94,1191.1z"/>
	<path class="st2" d="M17.9,1047.3c-0.6,0.2-1.1,0.2-1.3-0.5C17.1,1046.8,17.7,1046.6,17.9,1047.3z"/>
	<path class="st3" d="M261.5,1249.4c-0.6,0.1-1.2,0.1-1.8,0C260.3,1248.9,260.9,1248.9,261.5,1249.4z"/>
	<path class="st2" d="M130.2,1231.1c-0.7,0.1-1.3,0-1.5-0.8c0.3,0.1,0.6,0.2,0.9,0.2c0.1,0.2,0.3,0.3,0.5,0.2
		C130.2,1230.9,130.2,1231,130.2,1231.1z"/>
	<path class="st3" d="M71.7,1100.6c-0.5-0.4-0.7-0.9-0.8-1.5C71.7,1099.3,71.7,1099.9,71.7,1100.6z"/>
	<path class="st3" d="M34.1,1056.4c-0.5-0.1-1-0.4-1.4-0.7C33.4,1055.4,34,1055.6,34.1,1056.4z"/>
	<path class="st3" d="M218.3,1251c-0.5-0.1-1,0.5-1.5,0C217.3,1250.9,217.8,1250.1,218.3,1251z"/>
	<path class="st2" d="M22.7,1049.7c-0.6,0.2-1.1,0.1-1.3-0.6C22,1049.2,22.4,1049.2,22.7,1049.7z"/>
	<path class="st3" d="M100.4,1202.7c-0.4-0.4-0.7-0.9-0.7-1.4C100.3,1201.6,100.6,1202,100.4,1202.7z"/>
	<path class="st3" d="M146.5,1238.7c-0.5-0.1-0.9-0.2-1.4-0.3c-0.1-0.1-0.2-0.3-0.3-0.4C145.4,1238.1,146.1,1237.9,146.5,1238.7z"/>
	<path class="st2" d="M-124.7,1037.7c-0.4,0.6-1-0.1-1.4,0.3c0,0-0.1-0.1-0.1-0.1c0-0.1,0.1-0.1,0.1-0.2
		C-125.7,1037.5-125.2,1037.1-124.7,1037.7z"/>
	<path class="st3" d="M118.9,1222.9c-0.5,0.1-0.8-0.6-1.3-0.4c-0.1-0.1-0.2-0.3-0.3-0.4C118.1,1221.9,118.6,1222.1,118.9,1222.9z"/>
	<path class="st3" d="M-34.7,1033.3c-0.5,0.1-1-0.1-1.5-0.3C-35.6,1032.6-35.1,1032.7-34.7,1033.3z"/>
	<path class="st3" d="M-0.8,1040c-0.6-0.2-1.3-0.1-1.7-0.6C-1.9,1039.3-1.3,1039.3-0.8,1040z"/>
	<path class="st3" d="M95,1193c-0.6-0.3-0.7-0.9-0.9-1.5C94.8,1191.7,95,1192.3,95,1193z"/>
	<path class="st3" d="M89.8,1180.9c-0.3-0.4-0.4-0.8-0.4-1.2C90,1179.9,90.3,1180.3,89.8,1180.9z"/>
	<path class="st3" d="M-73.1,1032.1c-0.5-0.1-1,0.4-1.5,0C-74.1,1032-73.6,1031.3-73.1,1032.1z"/>
	<path class="st2" d="M-126.1,1038c-0.4,0.6-1,0-1.5,0.2c0.2-0.2,0.3-0.3,0.5-0.5c0.2,0,0.3,0,0.5,0c0.1,0.2,0.2,0.2,0.4,0.2
		C-126.2,1037.9-126.1,1037.9-126.1,1038z"/>
	<path class="st3" d="M41.1,1061.4c-0.5-0.1-0.8-0.4-1.2-0.7C40.6,1060.4,41,1060.8,41.1,1061.4z"/>
	<path class="st3" d="M75.8,1110.9c-0.5-0.4-0.4-1-0.5-1.6C75.8,1109.7,75.9,1110.3,75.8,1110.9z"/>
	<path class="st3" d="M95.7,1194.4c-0.4-0.3-0.5-0.8-0.6-1.3C95.9,1193.3,95.9,1193.8,95.7,1194.4z"/>
	<path class="st2" d="M135.3,1233.8c-0.5,0-1.1,0.2-1.3-0.6c0.2,0,0.3,0,0.5,0c0.2,0.3,0.5,0.2,0.7,0.2
		C135.2,1233.5,135.3,1233.7,135.3,1233.8z"/>
	<path class="st3" d="M84.6,1151.9c-0.3-0.4-0.5-0.9-0.3-1.4C84.5,1150.9,85,1151.3,84.6,1151.9z"/>
	<path class="st3" d="M176,1247.1c-0.6,0.1-1-0.2-1.5-0.3C175.1,1246.3,175.6,1246.5,176,1247.1z"/>
	<path class="st2" d="M-96.6,1033.9c-0.3,0.6-0.6,0.2-1,0c0-0.1,0-0.2,0-0.3C-97.2,1033.6-96.9,1033.5-96.6,1033.9z"/>
	<path class="st3" d="M-116.5,1036c-0.4,0.4-0.8,0.2-1.3,0.1C-117.4,1035.6-117,1035.7-116.5,1036z"/>
	<path class="st2" d="M52.9,1072.7c-0.5-0.1-0.9-0.4-0.8-1C52.6,1071.8,52.9,1072.1,52.9,1072.7z"/>
	<path class="st3" d="M-11.6,1037.1c-0.5,0.2-0.9-0.1-1.3-0.3C-12.4,1036.3-12,1036.7-11.6,1037.1z"/>
	<path class="st2" d="M-123,1037.5c-0.4,0.5-0.9,0-1.3,0c0-0.2,0.1-0.3,0.3-0.4c0.3,0.1,0.6,0.2,0.9,0.2
		C-123,1037.4-123,1037.4-123,1037.5z"/>
	<path class="st3" d="M-127.1,1037.7c-0.2,0.2-0.3,0.3-0.5,0.5c0,0.1-0.1,0.1-0.2,0.1c-0.3-0.1-0.5-0.2-0.8-0.3
		C-128.2,1037.1-127.6,1038-127.1,1037.7z"/>
	<path class="st3" d="M-132.6,1038.9c-0.4,0.4-0.8,0.2-1.2,0.2C-133.5,1038.5-133.1,1038.5-132.6,1038.9z"/>
	<path class="st3" d="M192.5,1249.9c-0.1-0.1-0.3-0.2-0.4-0.4c0.4-0.3,0.7-0.4,1,0.1c0,0.1,0,0.2,0,0.3
		C192.9,1249.9,192.7,1249.9,192.5,1249.9z"/>
	<path class="st3" d="M123.7,1226.5c-0.5-0.1-1-0.2-1.2-0.7C123,1225.8,123.6,1225.7,123.7,1226.5z"/>
	<path class="st3" d="M74.9,1108.4c-0.4-0.2-0.7-0.5-0.6-1C74.7,1107.7,75.3,1107.8,74.9,1108.4z"/>
	<path class="st3" d="M171.2,1246.1c-0.4,0-0.9,0.2-1.2-0.2C170.5,1245.6,170.9,1245.5,171.2,1246.1z"/>
	<path class="st3" d="M202,1250.4c-0.4,0-0.9,0.2-1.2-0.2C201.2,1249.9,201.6,1249.8,202,1250.4z"/>
	<path class="st3" d="M-118.5,1036.6c-0.3-0.1-0.6-0.2-0.9-0.2c0.4-0.7,0.9,0.1,1.3-0.1C-118.3,1036.4-118.4,1036.5-118.5,1036.6z"
		/>
	<path class="st3" d="M89.1,1178.7c-0.3-0.4-0.4-0.8-0.4-1.2C89.2,1177.8,89.4,1178.2,89.1,1178.7z"/>
	<path class="st3" d="M138.8,1235.4c-0.4-0.1-0.9-0.2-1.2-0.5C138.2,1234.7,138.6,1234.8,138.8,1235.4z"/>
	<path class="st3" d="M-87.2,1032.6c-0.4-0.1-0.8,0.4-1.2,0.1C-88.1,1032.4-87.7,1031.9-87.2,1032.6z"/>
	<path class="st3" d="M-97.6,1033.6c0,0.1,0,0.2,0,0.3c-0.2,0-0.3,0-0.5,0c-0.1-0.4-0.5-0.3-0.8-0.3
		C-98.4,1032.8-98,1033.5-97.6,1033.6z"/>
	<path class="st3" d="M-68,1031.8c-0.4-0.1-0.8,0.4-1.2,0.1C-68.9,1031.7-68.5,1031.2-68,1031.8z"/>
	<path class="st3" d="M240.1,1250.9c-0.4-0.1-0.8,0.4-1.2,0.1C239.3,1250.8,239.7,1250.2,240.1,1250.9z"/>
	<path class="st3" d="M-144.4,1041.2c-0.3,0.3-0.7,0.2-1,0.2C-145.1,1040.9-144.8,1040.9-144.4,1041.2z"/>
	<path class="st3" d="M121.5,1224.8c-0.4-0.1-0.7-0.2-0.9-0.5C121.1,1224,121.4,1224.3,121.5,1224.8z"/>
	<path class="st3" d="M-48.7,1032c-0.3,0.1-0.7,0.1-1,0C-49.3,1031.6-49,1031.5-48.7,1032z"/>
	<path class="st3" d="M291,1245.7c-0.3,0.3-0.7,0.2-1,0.1C290.2,1245.4,290.6,1245.4,291,1245.7z"/>
	<path class="st3" d="M144.6,1237.9c-0.4,0.1-0.7-0.1-1-0.3C144.1,1237.1,144.4,1237.6,144.6,1237.9z"/>
	<path class="st3" d="M-123.1,1037.4c-0.3-0.1-0.6-0.2-0.9-0.2c0.4-0.7,0.7-0.1,1,0.1C-123,1037.2-123.1,1037.3-123.1,1037.4z"/>
	<path class="st3" d="M76.4,1112.8c-0.3-0.3-0.2-0.7-0.2-1C76.8,1112,76.7,1112.4,76.4,1112.8z"/>
	<path class="st3" d="M-145.8,1041.5c-0.3,0.3-0.6,0.2-1,0.2C-146.6,1041.1-146.2,1041.2-145.8,1041.5z"/>
	<path class="st3" d="M-102.2,1034.1c-0.3,0.3-0.7,0.2-1,0.1C-102.9,1033.7-102.5,1033.7-102.2,1034.1z"/>
	<path class="st3" d="M270.3,1248.3c-0.3,0.1-0.7,0.2-1,0.2C269.6,1248.1,269.8,1247.5,270.3,1248.3z"/>
	<path class="st3" d="M205.3,1250.7c-0.3,0-0.7,0.1-1-0.2C204.7,1250.2,205.1,1250.1,205.3,1250.7z"/>
	<path class="st3" d="M31.6,1054.7c-0.5,0.1-0.8-0.3-1-0.7C31.1,1054,31.4,1054.1,31.6,1054.7z"/>
	<path class="st3" d="M259.3,1249.5c-0.3,0.3-0.7,0.2-1,0.1C258.5,1249.2,258.9,1249.2,259.3,1249.5z"/>
	<path class="st3" d="M244.4,1250.7c-0.4,0-0.7,0-1.1,0C243.7,1250.1,244.1,1250.1,244.4,1250.7z"/>
	<path class="st3" d="M236.8,1250.9c-0.3,0-0.7,0-1,0C236.1,1250.4,236.4,1250.3,236.8,1250.9z"/>
	<path class="st3" d="M85.6,1163.4c0-0.3-0.1-0.6-0.1-1C86,1162.7,86.2,1163,85.6,1163.4z"/>
	<path class="st3" d="M99.6,1201.1c-0.4-0.1-0.6-0.3-0.7-0.8C99.4,1200.4,99.7,1200.6,99.6,1201.1z"/>
	<path class="st3" d="M13.3,1045.1c-0.3,0-0.5,0.1-0.7-0.2C12.9,1044.5,13.2,1044.6,13.3,1045.1z"/>
	<path class="st3" d="M7.8,1042.9c-0.3,0-0.5,0.1-0.7-0.2C7.4,1042.3,7.6,1042.5,7.8,1042.9z"/>
	<path class="st3" d="M-147.7,1042c-0.2,0.3-0.5,0.3-0.8,0.2C-148.3,1041.8-148.1,1041.6-147.7,1042z"/>
	<path class="st3" d="M3.7,1041.5c-0.3,0-0.5,0.1-0.7-0.2C3.3,1040.9,3.6,1041,3.7,1041.5z"/>
	<path class="st3" d="M80.8,1127.4c-0.3-0.2-0.3-0.4-0.3-0.7C81,1126.8,81.1,1127,80.8,1127.4z"/>
	<path class="st4" d="M576.1,1170.9c-0.2,0.2-0.5,0.2-0.7,0.1C575.5,1170.5,575.8,1170.5,576.1,1170.9z"/>
	<path class="st3" d="M127.8,1229.1c-0.3,0-0.5,0-0.7-0.2C127.4,1228.6,127.7,1228.6,127.8,1229.1z"/>
	<path class="st3" d="M-6.2,1038.9c-0.2-0.2-0.3-0.3-0.5-0.5c0.4,0.1,0.8-0.1,1,0.4C-5.8,1039-6,1039-6.2,1038.9z"/>
	<path class="st3" d="M133.3,1232.8c0-0.1,0-0.2,0-0.3c0.6-0.3,0.4,0.2,0.5,0.4C133.6,1232.9,133.5,1232.8,133.3,1232.8z"/>
	<path class="st3" d="M135.2,1233.4c-0.3,0-0.6,0-0.7-0.2C134.8,1232.9,135.1,1233,135.2,1233.4z"/>
	<path class="st3" d="M-115.3,1035.7c-0.2,0.3-0.5,0.3-0.8,0.2C-115.9,1035.5-115.7,1035.4-115.3,1035.7z"/>
	<path class="st3" d="M194.3,1250c-0.1,0-0.2,0.1-0.4,0.1c-0.1,0-0.3,0-0.4,0c0-0.1,0-0.2,0-0.3
		C193.9,1249.4,194.1,1249.5,194.3,1250z"/>
	<path class="st3" d="M-14.8,1036.4c-0.3,0.1-0.6,0.1-0.8-0.2C-15.2,1035.9-14.9,1036-14.8,1036.4z"/>
	<path class="st3" d="M289.3,1245.9c-0.3,0-0.5,0-0.8,0C288.8,1245.3,289,1245.3,289.3,1245.9z"/>
	<path class="st3" d="M-157.1,1044.5c-0.2,0.2-0.5,0.1-0.8,0C-157.6,1044.1-157.4,1044-157.1,1044.5z"/>
	<path class="st3" d="M-79.3,1032.3c-0.3,0-0.5,0-0.8,0C-79.8,1031.8-79.6,1031.8-79.3,1032.3z"/>
	<path class="st3" d="M-101,1033.9c-0.2,0.2-0.5,0.1-0.8,0.1C-101.5,1033.6-101.3,1033.4-101,1033.9z"/>
	<path class="st3" d="M-32.3,1033.5c-0.3,0.1-0.5,0.1-0.8-0.1C-32.7,1032.9-32.5,1033.1-32.3,1033.5z"/>
	<path class="st3" d="M283.3,1246.8c-0.2,0.2-0.5,0.1-0.7,0.1C282.7,1246.4,283,1246.2,283.3,1246.8z"/>
	<path class="st3" d="M279,1247.4c-0.3,0-0.5,0-0.8,0c0.1-0.2,0.1-0.4,0.4-0.4C278.9,1247,278.9,1247.2,279,1247.4z"/>
	<path class="st3" d="M-95.2,1033.3c-0.3,0-0.5,0-0.8,0C-95.7,1032.7-95.4,1032.7-95.2,1033.3z"/>
	<path class="st3" d="M88.4,1176.6c-0.3-0.2-0.2-0.5-0.2-0.7C88.7,1176,88.8,1176.2,88.4,1176.6z"/>
	<path class="st3" d="M268.6,1248.7c-0.2,0.1-0.5,0.1-0.8,0C268.1,1248.3,268.3,1248.2,268.6,1248.7z"/>
	<path class="st3" d="M263.2,1249.2c-0.3,0-0.5,0-0.8,0C262.6,1248.7,262.9,1248.7,263.2,1249.2z"/>
	<path class="st3" d="M-89.4,1032.8c-0.2,0.3-0.5,0.4-0.8,0.1C-89.9,1032.6-89.6,1032.6-89.4,1032.8z"/>
	<path class="st3" d="M-65.4,1031.8c-0.3,0-0.5,0-0.8,0C-65.9,1031.3-65.6,1031.3-65.4,1031.8z"/>
	<path class="st3" d="M-64.2,1031.8c-0.1,0.1-0.2,0.1-0.4,0.2c-0.1,0-0.3,0-0.4-0.1c0-0.2,0-0.4,0.3-0.4
		C-64.4,1031.4-64.3,1031.6-64.2,1031.8z"/>
	<path class="st3" d="M15,1045.8c-0.3,0-0.6,0-0.8-0.2C14.6,1045.2,14.8,1045.3,15,1045.8z"/>
	<path class="st3" d="M-70.5,1032c-0.2,0.2-0.5,0.1-0.8,0C-71,1031.7-70.8,1031.5-70.5,1032z"/>
	<path class="st3" d="M198.4,1250.2c-0.3,0-0.6,0.1-0.8-0.2C197.9,1249.7,198.2,1249.8,198.4,1250.2z"/>
	<path class="st4" d="M448.9,1205.2c-0.2,0.3-0.5,0.2-0.7,0.2C448.3,1204.8,448.5,1204.8,448.9,1205.2z"/>
	<path class="st3" d="M198.6,1250.6c0-0.1,0-0.2,0-0.3c0.3,0.1,0.7-0.5,1,0c-0.1,0.1-0.2,0.2-0.3,0.2
		C199,1250.6,198.8,1250.6,198.6,1250.6z"/>
	<path class="st3" d="M-159,1044.9c-0.2,0.2-0.5,0.2-0.7,0.1C-159.6,1044.6-159.4,1044.5-159,1044.9z"/>
	<path class="st3" d="M249.2,1250.3c0,0.1,0,0.2,0,0.3c-0.2,0-0.3,0-0.5,0c0-0.1,0-0.2,0-0.3C248.9,1250,249,1250,249.2,1250.3z"/>
	<path class="st3" d="M189,1249.6c0-0.1,0-0.2,0-0.3c0.4-0.3,0.6-0.3,0.7,0.2C189.4,1249.7,189.2,1249.7,189,1249.6z"/>
	<path class="st3" d="M-81.7,1032.3c-0.3,0.1-0.5,0.1-0.8-0.1C-82.1,1031.7-81.9,1031.9-81.7,1032.3z"/>
	<path class="st3" d="M245.6,1250.6c-0.3,0.2-0.5,0.1-0.8,0C245.1,1250.2,245.3,1250.1,245.6,1250.6z"/>
	<path class="st3" d="M208.2,1250.8c-0.3,0.2-0.6,0.2-0.8-0.1C207.7,1250.4,208,1250.5,208.2,1250.8z"/>
	<path class="st3" d="M212.3,1250.9c-0.3,0-0.5,0-0.8,0C211.7,1250.4,212,1250.4,212.3,1250.9z"/>
	<path class="st3" d="M-84.4,1032.5c-0.2,0.2-0.5,0.1-0.8,0C-84.9,1032.1-84.7,1032-84.4,1032.5z"/>
	<path class="st3" d="M27.7,1052c-0.3,0-0.5,0-0.7-0.2C27.3,1051.5,27.6,1051.6,27.7,1052z"/>
	<path class="st5" d="M440.2,1208.1c-0.2,0.2-0.5,0.2-0.7,0.1C439.7,1207.7,439.9,1207.6,440.2,1208.1z"/>
	<path class="st3" d="M-45.5,1032.3c-0.3,0-0.5,0.1-0.7-0.1C-45.9,1031.7-45.7,1031.9-45.5,1032.3z"/>
	<path class="st3" d="M230.3,1251.1c-0.3,0-0.5,0-0.8,0C229.7,1250.6,230,1250.6,230.3,1251.1z"/>
	<path class="st3" d="M180.9,1248c-0.1,0.1-0.3,0.1-0.4,0.2c-0.1,0-0.3,0-0.4,0c0-0.1,0-0.2,0-0.3
		C180.4,1247.7,180.7,1247.5,180.9,1248z"/>
	<path class="st3" d="M172.4,1246.4c0,0.1,0,0.2,0,0.3c-0.2,0-0.3,0-0.5,0c-0.1-0.2-0.2-0.3-0.2-0.5
		C171.9,1246.2,172.2,1246.2,172.4,1246.4z"/>
	<path class="st3" d="M-105,1034.4c-0.2,0.2-0.4,0.5-0.8,0.1C-105.5,1034.3-105.3,1034.3-105,1034.4z"/>
	<path class="st3" d="M155.4,1242c-0.4,0.1-0.6-0.1-0.8-0.4C155,1241.6,155.3,1241.6,155.4,1242z"/>
	<path class="st3" d="M-62.8,1031.9c-0.2,0.2-0.3,0.2-0.5-0.1C-63.1,1031.7-62.9,1031.7-62.8,1031.9z"/>
	<path class="st3" d="M-51.2,1032.1c-0.2,0-0.4,0-0.6-0.1C-51.6,1031.6-51.4,1031.7-51.2,1032.1z"/>
	<path class="st3" d="M-50,1032.1c-0.2,0-0.4,0-0.6,0C-50.4,1031.7-50.2,1031.6-50,1032.1z"/>
	<path class="st3" d="M-80.7,1032.3c-0.2,0-0.4,0-0.6,0C-81.1,1031.9-80.9,1031.9-80.7,1032.3z"/>
	<path class="st3" d="M126.1,1228.2c-0.2,0-0.4,0-0.5-0.2C126,1227.6,126,1227.9,126.1,1228.2z"/>
	<path class="st3" d="M-86,1032.6c-0.2,0-0.4,0-0.6,0C-86.4,1032.1-86.2,1032.1-86,1032.6z"/>
	<path class="st3" d="M-40.9,1032.6c-0.2,0-0.4,0-0.5-0.1C-41.2,1032.1-41.1,1032.1-40.9,1032.6z"/>
	<path class="st3" d="M-39.7,1032.8c-0.2,0.1-0.4,0-0.5-0.2C-39.9,1032.3-39.8,1032.6-39.7,1032.8z"/>
	<path class="st3" d="M130.2,1230.8c-0.2,0-0.4,0-0.5-0.2C130,1230.2,130.1,1230.5,130.2,1230.8z"/>
	<path class="st5" d="M363.9,1230.6c-0.1,0.2-0.3,0.2-0.5,0C363.6,1230.4,363.7,1230.3,363.9,1230.6z"/>
	<path class="st3" d="M131.8,1231.8c-0.2,0-0.4,0-0.5-0.2C131.7,1231.2,131.8,1231.5,131.8,1231.8z"/>
	<path class="st3" d="M-31.1,1033.7c-0.2,0.1-0.4,0.1-0.5-0.2C-31.3,1033.3-31.2,1033.5-31.1,1033.7z"/>
	<path class="st3" d="M-103.6,1034.3c-0.2,0.2-0.3,0.2-0.5,0C-103.9,1034.1-103.7,1034.1-103.6,1034.3z"/>
	<path class="st3" d="M-107,1034.7c-0.2,0-0.3,0-0.5,0C-107.3,1034.4-107.2,1034.2-107,1034.7z"/>
	<path class="st3" d="M-21.5,1035.2c-0.2,0-0.4,0-0.5-0.2C-21.6,1034.7-21.6,1035-21.5,1035.2z"/>
	<path class="st3" d="M-20,1035.4c-0.2,0.1-0.4,0-0.6-0.1C-20.3,1034.9-20.2,1035.1-20,1035.4z"/>
	<path class="st3" d="M136.9,1234.4c-0.3,0-0.5-0.1-0.6-0.3C136.7,1233.9,136.8,1234.1,136.9,1234.4z"/>
	<path class="st6" d="M347.4,1234.8c-0.2,0.1-0.3,0.1-0.5,0C347,1234.4,347.2,1234.3,347.4,1234.8z"/>
	<path class="st3" d="M-120.4,1036.7c-0.2,0-0.3,0-0.5,0c0-0.1,0.1-0.3,0.3-0.3C-120.4,1036.4-120.4,1036.5-120.4,1036.7z"/>
	<path class="st3" d="M-13.6,1036.7c-0.2-0.1-0.3-0.1-0.5-0.2C-13.8,1036.1-13.7,1036.4-13.6,1036.7z"/>
	<path class="st3" d="M141.2,1236.5c-0.3,0.1-0.5,0-0.6-0.3C141,1236.1,141.1,1236.2,141.2,1236.5z"/>
	<path class="st3" d="M142.9,1237.2c-0.2,0.1-0.4,0-0.5-0.2C142.7,1236.7,142.8,1237,142.9,1237.2z"/>
	<path class="st3" d="M-121.8,1036.9c-0.2,0-0.4,0-0.6,0C-122.2,1036.4-122,1036.4-121.8,1036.9z"/>
	<path class="st3" d="M-126.2,1037.8c-0.2,0-0.3,0-0.4-0.2c0.2-0.2,0.3-0.2,0.5,0C-126.2,1037.7-126.2,1037.8-126.2,1037.8z"/>
	<path class="st7" d="M581.1,1170.6c-0.2,0-0.3,0-0.5-0.1c0-0.1,0.1-0.3,0.3-0.3C581,1170.3,581,1170.4,581.1,1170.6z"/>
	<path class="st6" d="M327,1239.1c-0.2,0-0.3,0.1-0.5,0.1C326.6,1238.8,326.7,1238.6,327,1239.1z"/>
	<path class="st3" d="M-4.2,1039c-0.2,0.1-0.4,0.1-0.5-0.1C-4.4,1038.5-4.3,1038.8-4.2,1039z"/>
	<path class="st3" d="M150.4,1240.1c-0.3,0-0.5-0.1-0.6-0.3C150.1,1239.7,150.3,1239.8,150.4,1240.1z"/>
	<path class="st6" d="M322.2,1240c-0.1,0.2-0.3,0.2-0.5,0.1C321.8,1239.8,321.9,1239.6,322.2,1240z"/>
	<path class="st2" d="M151.8,1241c-0.3,0.1-0.5,0-0.6-0.3C151.6,1240.5,151.8,1240.6,151.8,1241z"/>
	<path class="st3" d="M154,1241.5c-0.2,0.1-0.4,0.1-0.5-0.1C153.7,1241,153.8,1241.3,154,1241.5z"/>
	<path class="st3" d="M1.1,1040.7c-0.2,0.1-0.4,0-0.5-0.2C0.9,1040.2,1,1040.5,1.1,1040.7z"/>
	<path class="st3" d="M-150.1,1042.6c-0.2,0-0.4,0-0.6,0C-150.5,1042.2-150.3,1042.2-150.1,1042.6z"/>
	<path class="st3" d="M161.9,1243.9c-0.2,0.1-0.4,0.1-0.5-0.2C161.6,1243.4,161.8,1243.7,161.9,1243.9z"/>
	<path class="st3" d="M169.3,1245.7c-0.2-0.1-0.3-0.1-0.5-0.2C169.1,1245.1,169.2,1245.4,169.3,1245.7z"/>
	<path class="st3" d="M-151.8,1043.1c-0.2,0-0.4,0-0.6,0C-152.1,1042.7-152,1042.7-151.8,1043.1z"/>
	<path class="st3" d="M-153.7,1043.6c-0.2,0-0.4,0-0.6,0C-154.1,1043.2-153.9,1043.1-153.7,1043.6z"/>
	<path class="st3" d="M-155.4,1044c-0.2,0.1-0.3,0.1-0.5,0.1C-155.8,1043.8-155.7,1043.5-155.4,1044z"/>
	<path class="st3" d="M10.7,1044.1c-0.2,0-0.4,0-0.5-0.2C10.5,1043.6,10.6,1043.8,10.7,1044.1z"/>
	<path class="st3" d="M-160.9,1045.5c-0.2,0-0.4,0-0.6,0C-161.3,1045.1-161.1,1045.1-160.9,1045.5z"/>
	<path class="st3" d="M-163.3,1046.1c-0.1,0.2-0.3,0.2-0.5,0.2C-163.8,1046-163.7,1045.7-163.3,1046.1z"/>
	<path class="st3" d="M21,1048.6c-0.2,0.1-0.4,0-0.5-0.2C20.8,1048.1,20.9,1048.4,21,1048.6z"/>
	<path class="st3" d="M281.8,1246.9c-0.2,0-0.3,0-0.5,0c0-0.2,0.1-0.3,0.3-0.3C281.8,1246.6,281.8,1246.7,281.8,1246.9z"/>
	<path class="st3" d="M24.4,1050.3c-0.2,0-0.4,0-0.5-0.2C24.1,1049.8,24.3,1050,24.4,1050.3z"/>
	<path class="st3" d="M177.7,1247.4c-0.2,0-0.3-0.1-0.5-0.1C177.5,1246.8,177.6,1247,177.7,1247.4z"/>
	<path class="st3" d="M26.2,1051.3c-0.2,0-0.4-0.1-0.5-0.3C26.1,1050.8,26.2,1051.1,26.2,1051.3z"/>
	<path class="st3" d="M29.9,1053.5c-0.3,0-0.5-0.1-0.6-0.3C29.6,1053,29.8,1053.2,29.9,1053.5z"/>
	<path class="st3" d="M38.3,1059.2c-0.2,0-0.4,0-0.5-0.2C38.1,1058.7,38.2,1058.9,38.3,1059.2z"/>
	<path class="st3" d="M43.3,1063.1c-0.2,0-0.4,0-0.5-0.2C43.2,1062.5,43.2,1062.8,43.3,1063.1z"/>
	<path class="st3" d="M273,1248c-0.2,0-0.4,0-0.5,0C272.6,1247.6,272.8,1247.6,273,1248z"/>
	<path class="st2" d="M180.1,1247.9c0,0.1,0,0.2,0,0.3c-0.3,0.2-0.5,0-0.5-0.3C179.8,1247.9,179.9,1247.9,180.1,1247.9z"/>
	<path class="st3" d="M182,1248.3c-0.2,0.1-0.4,0-0.5-0.2C181.8,1247.7,181.9,1248,182,1248.3z"/>
	<path class="st3" d="M62.9,1084.7c-0.3-0.1-0.4-0.3-0.4-0.5C62.8,1084.2,63,1084.4,62.9,1084.7z"/>
	<path class="st3" d="M183.7,1248.8c-0.2,0-0.4,0-0.5-0.2C183.5,1248.2,183.6,1248.5,183.7,1248.8z"/>
	<path class="st3" d="M184.7,1248.7c-0.2,0-0.4,0-0.6,0C184.3,1248.3,184.5,1248.3,184.7,1248.7z"/>
	<path class="st3" d="M267.3,1248.7c-0.2,0-0.4,0-0.6,0C266.8,1248.3,267,1248.3,267.3,1248.7z"/>
	<path class="st8" d="M565.5,1172.2c-0.2,0-0.3,0-0.5,0c0-0.2,0-0.4,0.3-0.4C565.4,1171.9,565.4,1172.1,565.5,1172.2z"/>
	<path class="st3" d="M264.6,1249.1c-0.2,0-0.3,0-0.5-0.1C264.3,1248.5,264.4,1248.6,264.6,1249.1z"/>
	<path class="st3" d="M265.8,1249c-0.2,0-0.4,0-0.6,0C265.4,1248.6,265.6,1248.6,265.8,1249z"/>
	<path class="st7" d="M626.2,1170.3c-0.2,0-0.3,0-0.5-0.1c0-0.2,0.1-0.3,0.3-0.3C626.1,1170,626.1,1170.2,626.2,1170.3z"/>
	<path class="st6" d="M653.1,1173.9c-0.2,0-0.3,0-0.5,0C652.8,1173.4,653,1173.5,653.1,1173.9z"/>
	<path class="st9" d="M603,1169.6c-0.2,0-0.3-0.1-0.5-0.1C602.7,1169,602.8,1169.2,603,1169.6z"/>
	<path class="st4" d="M521.4,1181c-0.1,0.1-0.3,0.2-0.5,0.1C521,1180.7,521.1,1180.6,521.4,1181z"/>
	<path class="st6" d="M507.9,1184.8c-0.1,0.2-0.3,0.2-0.5,0.2C507.5,1184.6,507.6,1184.4,507.9,1184.8z"/>
	<path class="st3" d="M256.2,1249.7c-0.2,0-0.4,0-0.6,0C255.8,1249.3,256,1249.3,256.2,1249.7z"/>
	<path class="st3" d="M257.4,1249.8c-0.2,0-0.3,0-0.5,0c0-0.2,0-0.4,0.3-0.4C257.3,1249.4,257.4,1249.6,257.4,1249.8z"/>
	<path class="st3" d="M91.8,1185.8c-0.2-0.1-0.3-0.3-0.2-0.6C91.9,1185.3,92,1185.5,91.8,1185.8z"/>
	<path class="st7" d="M584,1170.4c-0.2,0.2-0.3,0.2-0.5,0C583.7,1170.1,583.8,1170.1,584,1170.4z"/>
	<path class="st3" d="M159.3,1243.2c-0.3,0.1-0.5,0-0.6-0.2C159,1242.8,159.1,1242.9,159.3,1243.2z"/>
	<path class="st3" d="M195.3,1249.9c-0.2,0-0.4,0-0.6,0C194.9,1249.5,195.1,1249.5,195.3,1249.9z"/>
	<path class="st3" d="M196.4,1250c-0.2,0-0.4,0-0.6,0C196.1,1249.5,196.3,1249.5,196.4,1250z"/>
	<path class="st3" d="M252.3,1250c-0.2,0-0.4,0-0.5,0c0-0.1,0.1-0.3,0.3-0.3C252.3,1249.7,252.3,1249.8,252.3,1250z"/>
	<path class="st3" d="M253.5,1250c-0.2,0-0.4,0-0.5,0C253.2,1249.5,253.4,1249.5,253.5,1250z"/>
	<path class="st3" d="M254.7,1250c-0.2,0-0.4,0-0.6,0C254.4,1249.5,254.6,1249.5,254.7,1250z"/>
	<path class="st2" d="M193.5,1249.8c0,0.1,0,0.2,0,0.3c-0.2,0.2-0.4,0.1-0.5-0.1c0-0.1,0-0.2,0-0.3
		C193.2,1249.7,193.4,1249.7,193.5,1249.8z"/>
	<path class="st3" d="M101.5,1204.2c-0.3-0.1-0.4-0.2-0.4-0.5C101.4,1203.7,101.6,1203.9,101.5,1204.2z"/>
	<path class="st3" d="M178.9,1247.9c0-0.1-0.1-0.3-0.1-0.4c0.3-0.1,0.5-0.1,0.6,0.3C179.2,1248,179.1,1248,178.9,1247.9z"/>
	<path class="st10" d="M438.3,1208.8c-0.2,0.2-0.3,0.2-0.5,0C438,1208.5,438.1,1208.5,438.3,1208.8z"/>
	<path class="st10" d="M435.7,1209.5c-0.1,0.2-0.3,0.2-0.5,0.2C435.3,1209.3,435.4,1209.1,435.7,1209.5z"/>
	<path class="st10" d="M433.5,1210.3c-0.2,0-0.3,0.1-0.5,0.1C433.1,1210,433.3,1209.8,433.5,1210.3z"/>
	<path class="st3" d="M203.2,1250.4c-0.2,0-0.4,0-0.6,0C202.8,1250,203,1250,203.2,1250.4z"/>
	<path class="st3" d="M246.8,1250.4c-0.2,0-0.4,0-0.5,0C246.5,1250,246.6,1250,246.8,1250.4z"/>
	<path class="st8" d="M425.1,1213.1c-0.1,0.2-0.3,0.2-0.5,0.1C424.7,1212.9,424.8,1212.7,425.1,1213.1z"/>
	<path class="st3" d="M251.1,1250.3c-0.2,0.2-0.3,0.2-0.5,0C250.8,1250,251,1250,251.1,1250.3z"/>
	<path class="st3" d="M67,1091.5c-0.3-0.1-0.4-0.3-0.4-0.5C66.9,1091,67,1091.1,67,1091.5z"/>
	<path class="st9" d="M419.3,1215c-0.2,0.2-0.3,0.2-0.5,0C419,1214.7,419.2,1214.7,419.3,1215z"/>
	<path class="st3" d="M242.8,1250.6c-0.2,0-0.4,0-0.6,0C242.4,1250.3,242.6,1250.2,242.8,1250.6z"/>
	<path class="st3" d="M-66.8,1031.8c-0.2,0-0.4,0-0.6,0C-67.2,1031.4-67,1031.4-66.8,1031.8z"/>
	<path class="st3" d="M-60.6,1031.8c-0.2,0-0.4,0-0.6,0C-61,1031.4-60.8,1031.4-60.6,1031.8z"/>
	<path class="st3" d="M64.1,1086.4c-0.2-0.1-0.4-0.3-0.4-0.5C64,1085.9,64.2,1086.1,64.1,1086.4z"/>
	<path class="st11" d="M414.8,1216.3c-0.2,0-0.3,0.1-0.5,0.1C414.4,1216,414.6,1215.8,414.8,1216.3z"/>
	<path class="st3" d="M84.3,1150c-0.2-0.1-0.2-0.3-0.2-0.5C84.4,1149.5,84.7,1149.6,84.3,1150z"/>
	<path class="st3" d="M213.5,1250.9c-0.2,0-0.4,0-0.6,0C213.1,1250.5,213.3,1250.5,213.5,1250.9z"/>
	<path class="st3" d="M214.7,1250.9c-0.2,0-0.4,0-0.6-0.1C214.3,1250.5,214.5,1250.5,214.7,1250.9z"/>
	<path class="st3" d="M215.9,1250.9c-0.2,0-0.4,0-0.6,0C215.5,1250.5,215.7,1250.5,215.9,1250.9z"/>
	<path class="st3" d="M-59.4,1031.8c-0.2,0-0.4,0-0.6-0.1C-59.7,1031.4-59.5,1031.4-59.4,1031.8z"/>
	<path class="st7" d="M628.6,1170.3c-0.2,0-0.3,0-0.5,0c0-0.1,0.1-0.3,0.3-0.3C628.6,1170,628.6,1170.1,628.6,1170.3z"/>
	<path class="st3" d="M-58.2,1031.9c-0.2,0-0.4,0-0.6-0.1C-58.5,1031.4-58.3,1031.4-58.2,1031.9z"/>
	<path class="st3" d="M-71.9,1032.1c-0.2,0-0.4,0-0.6,0C-72.2,1031.6-72,1031.7-71.9,1032.1z"/>
	<path class="st3" d="M221.1,1251c-0.2,0.2-0.3,0.2-0.5,0C220.8,1250.7,221,1250.8,221.1,1251z"/>
	<path class="st3" d="M222.8,1251.1c-0.2,0.1-0.4,0.1-0.5-0.1C222.6,1250.6,222.7,1250.9,222.8,1251.1z"/>
	<path class="st3" d="M228.8,1251.1c-0.2,0-0.4,0-0.6,0C228.5,1250.7,228.6,1250.7,228.8,1251.1z"/>
	<path class="st5" d="M391.3,1223.3c-0.2,0-0.3,0-0.5,0c0-0.2,0.1-0.3,0.2-0.3C391.2,1223,391.3,1223.2,391.3,1223.3z"/>
	<path class="st3" d="M231.2,1251.1c-0.2,0-0.4,0-0.6,0C230.9,1250.7,231.1,1250.7,231.2,1251.1z"/>
	<path class="st3" d="M232.7,1251.1c-0.2,0-0.4,0-0.6,0C232.3,1250.7,232.5,1250.7,232.7,1251.1z"/>
	<path class="st3" d="M238.2,1251c-0.2,0.2-0.3,0.2-0.5,0C237.8,1250.7,238,1250.8,238.2,1251z"/>
</g>
</svg>
